<?xml version="1.0" encoding="UTF-8" standalone="no"?>
<!-- Created with Inkscape (http://www.inkscape.org/) -->

<svg
   xmlns:dc="http://purl.org/dc/elements/1.1/"
   xmlns:cc="http://creativecommons.org/ns#"
   xmlns:rdf="http://www.w3.org/1999/02/22-rdf-syntax-ns#"
   xmlns:svg="http://www.w3.org/2000/svg"
   xmlns="http://www.w3.org/2000/svg"
   xmlns:sodipodi="http://sodipodi.sourceforge.net/DTD/sodipodi-0.dtd"
   xmlns:inkscape="http://www.inkscape.org/namespaces/inkscape"
   width="248.774mm"
   height="130.258mm"
   viewBox="0 0 881.48268 461.54408"
   id="svg2"
   version="1.1"
   inkscape:version="0.91 r13725"
   sodipodi:docname="3mm-parts.svg">
  <defs
     id="defs4" />
  <sodipodi:namedview
     id="base"
     pagecolor="#ffffff"
     bordercolor="#666666"
     borderopacity="1.0"
     inkscape:pageopacity="0.0"
     inkscape:pageshadow="2"
     inkscape:zoom="0.7"
     inkscape:cx="445.72953"
     inkscape:cy="286.19633"
     inkscape:document-units="px"
     inkscape:current-layer="layer1"
     showgrid="false"
     inkscape:window-width="1314"
     inkscape:window-height="744"
     inkscape:window-x="52"
     inkscape:window-y="24"
     inkscape:window-maximized="1" />
  <metadata
     id="metadata7">
    <rdf:RDF>
      <cc:Work
         rdf:about="">
        <dc:format>image/svg+xml</dc:format>
        <dc:type
           rdf:resource="http://purl.org/dc/dcmitype/StillImage" />
        <dc:title></dc:title>
      </cc:Work>
    </rdf:RDF>
  </metadata>
  <g
     inkscape:label="Layer 1"
     inkscape:groupmode="layer"
     id="layer1"
     transform="translate(0,-590.81811)">
    <rect
       style="fill:#e3dedb;fill-opacity:1;stroke:none;stroke-width:0.1;stroke-miterlimit:4;stroke-dasharray:none;stroke-opacity:1"
       id="rect5109"
       width="301.18109"
       height="336.61417"
       x="0"
       y="715.74805" />
    <path
       inkscape:connector-curvature="0"
       style="fill:#666666;fill-opacity:1;stroke:none;stroke-width:0.1;stroke-miterlimit:4;stroke-dasharray:none;stroke-opacity:1"
       d="m 17.716797,726.3789 0,9.91992 38.445312,0 0,9.92187 38.267579,0 0,-9.92187 38.445312,0 0,-9.91992 -115.158203,0 z"
       id="rect5111" />
    <path
       inkscape:connector-curvature="0"
       style="fill:#666666;fill-opacity:1;stroke:none;stroke-width:0.1;stroke-miterlimit:4;stroke-dasharray:none;stroke-opacity:1"
       d="m 168.30664,726.3789 0,9.91992 38.44531,0 0,9.92187 38.26758,0 0,-9.92187 38.44531,0 0,-9.91992 -115.1582,0 z"
       id="rect5113" />
    <rect
       transform="scale(-1,-1)"
       y="-1041.7323"
       x="-132.87402"
       height="9.9212599"
       width="115.15748"
       id="rect5115"
       style="fill:#666666;fill-opacity:1;stroke:none;stroke-width:0.1;stroke-miterlimit:4;stroke-dasharray:none;stroke-opacity:1" />
    <rect
       style="fill:#666666;fill-opacity:1;stroke:none;stroke-width:0.1;stroke-miterlimit:4;stroke-dasharray:none;stroke-opacity:1"
       id="rect5117"
       width="115.15748"
       height="9.9212599"
       x="-283.46454"
       y="-1041.7323"
       transform="scale(-1,-1)" />
    <rect
       style="fill:#666666;fill-opacity:1;stroke:none;stroke-width:0.1;stroke-miterlimit:4;stroke-dasharray:none;stroke-opacity:1"
       id="rect5133"
       width="115.15748"
       height="9.9212599"
       x="-1016.9291"
       y="17.716536"
       transform="matrix(0,-1,1,0,0,0)" />
    <rect
       transform="matrix(0,-1,1,0,0,0)"
       y="17.716536"
       x="-866.33856"
       height="9.9212599"
       width="115.15748"
       id="rect5135"
       style="fill:#666666;fill-opacity:1;stroke:none;stroke-width:0.1;stroke-miterlimit:4;stroke-dasharray:none;stroke-opacity:1" />
    <rect
       transform="matrix(0,-1,1,0,0,0)"
       y="273.54327"
       x="-1016.9291"
       height="9.9212599"
       width="115.15748"
       id="rect5139"
       style="fill:#666666;fill-opacity:1;stroke:none;stroke-width:0.1;stroke-miterlimit:4;stroke-dasharray:none;stroke-opacity:1" />
    <rect
       style="fill:#666666;fill-opacity:1;stroke:none;stroke-width:0.1;stroke-miterlimit:4;stroke-dasharray:none;stroke-opacity:1"
       id="rect5141"
       width="115.15748"
       height="9.9212599"
       x="-866.33856"
       y="273.54327"
       transform="matrix(0,-1,1,0,0,0)" />
    <path
       id="path5195"
       d="m 17.7168,590.81835 0,10.62891 -17.7168,0 0,95.66992 17.7168,0 0,10.63086 115.1582,0 0,-10.63086 35.4336,0 0,10.63086 115.15625,0 0,-10.63086 17.7168,0 0,-95.66992 -17.7168,0 0,-10.62891 -115.15625,0 0,10.62891 -35.4336,0 0,-10.62891 -115.1582,0 z"
       style="fill:#e3dedb;fill-opacity:1;stroke:none;stroke-width:0.1;stroke-miterlimit:4;stroke-dasharray:none;stroke-opacity:1"
       inkscape:connector-curvature="0" />
    <rect
       y="715.74805"
       x="309.18109"
       height="336.61417"
       width="301.18109"
       id="rect4136"
       style="fill:#e3dedb;fill-opacity:1;stroke:none;stroke-width:0.1;stroke-miterlimit:4;stroke-dasharray:none;stroke-opacity:1" />
    <rect
       transform="scale(-1,-1)"
       y="-736.29919"
       x="-442.05505"
       height="9.9212599"
       width="115.15748"
       id="rect4236"
       style="fill:#666666;fill-opacity:1;stroke:none;stroke-width:0.1;stroke-miterlimit:4;stroke-dasharray:none;stroke-opacity:1" />
    <rect
       style="fill:#666666;fill-opacity:1;stroke:none;stroke-width:0.1;stroke-miterlimit:4;stroke-dasharray:none;stroke-opacity:1"
       id="rect5101"
       width="115.15748"
       height="9.9212599"
       x="-592.64563"
       y="-736.29919"
       transform="scale(-1,-1)" />
    <rect
       style="fill:#666666;fill-opacity:1;stroke:none;stroke-width:0.1;stroke-miterlimit:4;stroke-dasharray:none;stroke-opacity:1"
       id="rect5105"
       width="115.15748"
       height="9.9212599"
       x="-442.05505"
       y="-1041.7323"
       transform="scale(-1,-1)" />
    <rect
       transform="scale(-1,-1)"
       y="-1041.7323"
       x="-592.64563"
       height="9.9212599"
       width="115.15748"
       id="rect5107"
       style="fill:#666666;fill-opacity:1;stroke:none;stroke-width:0.1;stroke-miterlimit:4;stroke-dasharray:none;stroke-opacity:1" />
    <path
       style="fill:#e3dedb;fill-opacity:1;stroke:none;stroke-width:0.1;stroke-miterlimit:4;stroke-dasharray:none;stroke-opacity:1"
       d="m 326.8979,590.81835 0,10.62891 -17.7168,0 0,95.66992 17.7168,0 0,10.63086 115.1582,0 0,-10.63086 35.4336,0 0,10.63086 115.15625,0 0,-10.63086 17.7168,0 0,-95.66992 -17.7168,0 0,-10.62891 -115.15625,0 0,10.62891 -35.4336,0 0,-10.62891 -115.1582,0 z"
       id="rect5143"
       inkscape:connector-curvature="0" />
    <path
       style="fill:#e3dedb;fill-opacity:1;stroke:none;stroke-width:0.1;stroke-miterlimit:4;stroke-dasharray:none;stroke-opacity:1"
       d="m 628.99305,715.74804 0,35.43359 -10.63086,0 0,115.15625 10.63086,0 0,35.43359 -10.63086,0 0,115.15823 10.63086,0 0,35.4316 106.29883,0 0,-35.4316 10.63086,0 0,-115.15823 -10.63086,0 0,-35.43359 10.63086,0 0,-115.15625 -10.63086,0 0,-35.43359 -106.29883,0 z"
       id="rect5171"
       inkscape:connector-curvature="0" />
    <path
       inkscape:connector-curvature="0"
       id="path5197"
       d="m 764.5536,715.74804 0,35.43359 -10.63086,0 0,115.15625 10.63086,0 0,35.43359 -10.63086,0 0,115.15823 10.63086,0 0,35.4316 106.29883,0 0,-35.4316 10.63086,0 0,-115.15823 -10.63086,0 0,-35.43359 10.63086,0 0,-115.15625 -10.63086,0 0,-35.43359 -106.29883,0 z"
       style="fill:#e3dedb;fill-opacity:1;stroke:none;stroke-width:0.1;stroke-miterlimit:4;stroke-dasharray:none;stroke-opacity:1" />
    <g
       id="g5255"
       transform="translate(309.26433,-99.718603)"
       style="fill:#666666">
      <path
         style="fill:#666666;fill-opacity:1;stroke:none;stroke-width:0.1;stroke-miterlimit:4;stroke-dasharray:none;stroke-opacity:1"
         d="m 81.41363,998.83206 a 4.4291339,4.4291339 0 0 1 -4.42913,4.42924 4.4291339,4.4291339 0 0 1 -4.42914,-4.42924 4.4291339,4.4291339 0 0 1 4.42914,-4.4291 4.4291339,4.4291339 0 0 1 4.42913,4.4291 z"
         id="path5251"
         inkscape:connector-curvature="0" />
      <path
         inkscape:connector-curvature="0"
         id="path5253"
         d="m 81.41363,968.71525 a 4.4291339,4.4291339 0 0 1 -4.42913,4.42924 4.4291339,4.4291339 0 0 1 -4.42914,-4.42924 4.4291339,4.4291339 0 0 1 4.42914,-4.4291 4.4291339,4.4291339 0 0 1 4.42913,4.4291 z"
         style="fill:#666666;fill-opacity:1;stroke:none;stroke-width:0.1;stroke-miterlimit:4;stroke-dasharray:none;stroke-opacity:1" />
    </g>
    <g
       transform="translate(456.31157,-99.718603)"
       id="g5259"
       style="fill:#666666">
      <path
         inkscape:connector-curvature="0"
         id="path5261"
         d="m 81.41363,998.83206 a 4.4291339,4.4291339 0 0 1 -4.42913,4.42924 4.4291339,4.4291339 0 0 1 -4.42914,-4.42924 4.4291339,4.4291339 0 0 1 4.42914,-4.4291 4.4291339,4.4291339 0 0 1 4.42913,4.4291 z"
         style="fill:#666666;fill-opacity:1;stroke:none;stroke-width:0.1;stroke-miterlimit:4;stroke-dasharray:none;stroke-opacity:1" />
      <path
         style="fill:#666666;fill-opacity:1;stroke:none;stroke-width:0.1;stroke-miterlimit:4;stroke-dasharray:none;stroke-opacity:1"
         d="m 81.41363,968.71525 a 4.4291339,4.4291339 0 0 1 -4.42913,4.42924 4.4291339,4.4291339 0 0 1 -4.42914,-4.42924 4.4291339,4.4291339 0 0 1 4.42914,-4.4291 4.4291339,4.4291339 0 0 1 4.42913,4.4291 z"
         id="path5263"
         inkscape:connector-curvature="0" />
    </g>
  </g>
</svg>
