<?xml version="1.0" encoding="UTF-8" standalone="no"?>
<!-- Created with Inkscape (http://www.inkscape.org/) -->

<svg
   xmlns:dc="http://purl.org/dc/elements/1.1/"
   xmlns:cc="http://creativecommons.org/ns#"
   xmlns:rdf="http://www.w3.org/1999/02/22-rdf-syntax-ns#"
   xmlns:svg="http://www.w3.org/2000/svg"
   xmlns="http://www.w3.org/2000/svg"
   xmlns:sodipodi="http://sodipodi.sourceforge.net/DTD/sodipodi-0.dtd"
   xmlns:inkscape="http://www.inkscape.org/namespaces/inkscape"
   width="351mm"
   height="135mm"
   viewBox="0 0 1243.7008 478.34645"
   id="svg2"
   version="1.1"
   inkscape:version="0.91 r13725"
   sodipodi:docname="4mm-parts.svg">
  <defs
     id="defs4" />
  <sodipodi:namedview
     id="base"
     pagecolor="#ffffff"
     bordercolor="#666666"
     borderopacity="1.0"
     inkscape:pageopacity="0.0"
     inkscape:pageshadow="2"
     inkscape:zoom="0.5"
     inkscape:cx="64.49499"
     inkscape:cy="150.80833"
     inkscape:document-units="px"
     inkscape:current-layer="layer1"
     showgrid="false"
     inkscape:window-width="1314"
     inkscape:window-height="744"
     inkscape:window-x="52"
     inkscape:window-y="24"
     inkscape:window-maximized="1"
     showguides="false">
    <sodipodi:guide
       position="-87.681241,461.74071"
       orientation="1,0"
       id="guide5051" />
  </sodipodi:namedview>
  <metadata
     id="metadata7">
    <rdf:RDF>
      <cc:Work
         rdf:about="">
        <dc:format>image/svg+xml</dc:format>
        <dc:type
           rdf:resource="http://purl.org/dc/dcmitype/StillImage" />
        <dc:title />
      </cc:Work>
    </rdf:RDF>
  </metadata>
  <g
     inkscape:label="Layer 1"
     inkscape:groupmode="layer"
     id="layer1"
     transform="translate(0,-574.01574)">
    <path
       style="fill:#e3dedb;fill-opacity:1;stroke:none;stroke-width:0.1;stroke-miterlimit:4;stroke-dasharray:none;stroke-opacity:1"
       d="m 17.716797,574.01584 0,3.54297 0,10.6289 -17.716797,0 0,95.66993 17.716797,0 0,10.63086 0,3.54297 115.158203,0 0,-3.54297 0,-10.63086 35.43164,0 0,14.17383 115.1582,0 0,-3.54297 0,-10.63086 17.7168,0 0,-95.66993 -17.7168,0 0,-10.6289 0,-3.54297 -115.1582,0 0,14.17187 -35.43164,0 0,-10.6289 0,-3.54297 -115.158203,0 z"
       id="path5195"
       inkscape:connector-curvature="0" />
    <path
       style="fill:#e3dedb;fill-opacity:1;stroke:none;stroke-width:0.1;stroke-miterlimit:4;stroke-dasharray:none;stroke-opacity:1"
       d="m 970.86679,715.74881 0,35.4336 -0.002,0 0,-0.002 -14.17188,0 0,115.15821 3.54297,0 10.62891,0 0.002,0 0,35.43359 -0.002,0 -10.62891,0 -3.54297,0 0,115.15629 3.54297,0 0,0 10.63086,0 0,35.4317 106.29876,0 0,-35.4317 10.6309,0 0,0 3.541,0 0,-115.15629 -3.541,0 -10.6309,0 0,-35.43359 10.6309,0 3.541,0 0,-115.15821 -14.1719,0 0,-35.43164 -106.29876,0 z"
       id="rect5171"
       inkscape:connector-curvature="0" />
    <g
       id="g5407">
      <rect
         style="fill:#e3dedb;fill-opacity:1;stroke:none;stroke-width:0.1;stroke-miterlimit:4;stroke-dasharray:none;stroke-opacity:1"
         id="rect4136"
         width="301.18109"
         height="336.61417"
         x="318.89764"
         y="715.74805" />
      <rect
         style="fill:#ff9955;fill-opacity:1;stroke:none;stroke-width:0.1;stroke-miterlimit:4;stroke-dasharray:none;stroke-opacity:1"
         id="rect5030"
         width="115.15748"
         height="13.464567"
         x="336.6142"
         y="726.37793" />
      <rect
         y="726.37793"
         x="487.20471"
         height="13.464567"
         width="115.15748"
         id="rect5032"
         style="fill:#ff9955;fill-opacity:1;stroke:none;stroke-width:0.1;stroke-miterlimit:4;stroke-dasharray:none;stroke-opacity:1" />
      <rect
         y="1028.2677"
         x="336.6142"
         height="13.464567"
         width="115.15748"
         id="rect5028"
         style="fill:#ff9955;fill-opacity:1;stroke:none;stroke-width:0.1;stroke-miterlimit:4;stroke-dasharray:none;stroke-opacity:1" />
      <rect
         style="fill:#ff9955;fill-opacity:1;stroke:none;stroke-width:0.1;stroke-miterlimit:4;stroke-dasharray:none;stroke-opacity:1"
         id="rect5010"
         width="115.15748"
         height="13.464567"
         x="487.20471"
         y="1028.2677" />
      <path
         style="fill:#666666;fill-opacity:1;stroke:none;stroke-width:0.1;stroke-miterlimit:4;stroke-dasharray:none;stroke-opacity:1"
         d="m 400.39451,899.11346 a 4.4291339,4.4291339 0 0 1 -4.42913,4.42924 4.4291339,4.4291339 0 0 1 -4.42914,-4.42924 4.4291339,4.4291339 0 0 1 4.42914,-4.4291 4.4291339,4.4291339 0 0 1 4.42913,4.4291 z"
         id="path5251"
         inkscape:connector-curvature="0" />
      <path
         inkscape:connector-curvature="0"
         id="path5253"
         d="m 400.39451,868.99665 a 4.4291339,4.4291339 0 0 1 -4.42913,4.42924 4.4291339,4.4291339 0 0 1 -4.42914,-4.42924 4.4291339,4.4291339 0 0 1 4.42914,-4.4291 4.4291339,4.4291339 0 0 1 4.42913,4.4291 z"
         style="fill:#666666;fill-opacity:1;stroke:none;stroke-width:0.1;stroke-miterlimit:4;stroke-dasharray:none;stroke-opacity:1" />
      <g
         style="fill:#666666"
         id="g5259"
         transform="translate(466.02815,-99.718603)">
        <path
           style="fill:#666666;fill-opacity:1;stroke:none;stroke-width:0.1;stroke-miterlimit:4;stroke-dasharray:none;stroke-opacity:1"
           d="m 81.41363,998.83206 a 4.4291339,4.4291339 0 0 1 -4.42913,4.42924 4.4291339,4.4291339 0 0 1 -4.42914,-4.42924 4.4291339,4.4291339 0 0 1 4.42914,-4.4291 4.4291339,4.4291339 0 0 1 4.42913,4.4291 z"
           id="path5261"
           inkscape:connector-curvature="0" />
        <path
           inkscape:connector-curvature="0"
           id="path5263"
           d="m 81.41363,968.71525 a 4.4291339,4.4291339 0 0 1 -4.42913,4.42924 4.4291339,4.4291339 0 0 1 -4.42914,-4.42924 4.4291339,4.4291339 0 0 1 4.42914,-4.4291 4.4291339,4.4291339 0 0 1 4.42913,4.4291 z"
           style="fill:#666666;fill-opacity:1;stroke:none;stroke-width:0.1;stroke-miterlimit:4;stroke-dasharray:none;stroke-opacity:1" />
      </g>
      <path
         style="fill:#666666;fill-opacity:1;stroke:none;stroke-width:0.1;stroke-miterlimit:4;stroke-dasharray:none;stroke-opacity:1"
         d="m 517.32205,868.99665 a 4.4291339,4.4291339 0 0 1 -4.4292,4.42924 4.4291339,4.4291339 0 0 1 -4.4291,-4.42924 4.4291339,4.4291339 0 0 1 4.4291,-4.4291 4.4291339,4.4291339 0 0 1 4.4292,4.4291 z"
         id="path4960"
         inkscape:connector-curvature="0" />
      <path
         inkscape:connector-curvature="0"
         id="path4962"
         d="m 430.51107,868.99665 a 4.4291339,4.4291339 0 0 1 -4.4292,4.42924 4.4291339,4.4291339 0 0 1 -4.4291,-4.42924 4.4291339,4.4291339 0 0 1 4.4291,-4.4291 4.4291339,4.4291339 0 0 1 4.4292,4.4291 z"
         style="fill:#666666;fill-opacity:1;stroke:none;stroke-width:0.1;stroke-miterlimit:4;stroke-dasharray:none;stroke-opacity:1" />
      <path
         inkscape:connector-curvature="0"
         id="path4964"
         d="m 517.32205,760.92507 a 4.4291339,4.4291339 0 0 1 -4.4292,4.42924 4.4291339,4.4291339 0 0 1 -4.4291,-4.42924 4.4291339,4.4291339 0 0 1 4.4291,-4.4291 4.4291339,4.4291339 0 0 1 4.4292,4.4291 z"
         style="fill:#666666;fill-opacity:1;stroke:none;stroke-width:0.1;stroke-miterlimit:4;stroke-dasharray:none;stroke-opacity:1" />
      <path
         style="fill:#666666;fill-opacity:1;stroke:none;stroke-width:0.1;stroke-miterlimit:4;stroke-dasharray:none;stroke-opacity:1"
         d="m 430.51107,760.92507 a 4.4291339,4.4291339 0 0 1 -4.4292,4.42924 4.4291339,4.4291339 0 0 1 -4.4291,-4.42924 4.4291339,4.4291339 0 0 1 4.4291,-4.4291 4.4291339,4.4291339 0 0 1 4.4292,4.4291 z"
         id="path4966"
         inkscape:connector-curvature="0" />
    </g>
    <g
       id="g5118">
      <rect
         style="fill:#e3dedb;fill-opacity:1;stroke:none;stroke-width:0.1;stroke-miterlimit:4;stroke-dasharray:none;stroke-opacity:1"
         id="rect4853"
         width="301.18109"
         height="336.61417"
         x="637.79529"
         y="715.74805" />
      <rect
         transform="matrix(0,-1,1,0,0,0)"
         y="655.51178"
         x="-1016.9291"
         height="13.464567"
         width="115.15748"
         id="rect4983"
         style="fill:#ff9955;fill-opacity:1;stroke:none;stroke-width:0.1;stroke-miterlimit:4;stroke-dasharray:none;stroke-opacity:1" />
      <rect
         style="fill:#ff9955;fill-opacity:1;stroke:none;stroke-width:0.1;stroke-miterlimit:4;stroke-dasharray:none;stroke-opacity:1"
         id="rect4979"
         width="115.15748"
         height="13.464567"
         x="-866.33856"
         y="655.51178"
         transform="matrix(0,-1,1,0,0,0)" />
      <rect
         style="fill:#ff9955;fill-opacity:1;stroke:none;stroke-width:0.1;stroke-miterlimit:4;stroke-dasharray:none;stroke-opacity:1"
         id="rect4981"
         width="115.15748"
         height="13.464567"
         x="-1016.9291"
         y="907.79523"
         transform="matrix(0,-1,1,0,0,0)" />
      <rect
         transform="matrix(0,-1,1,0,0,0)"
         y="907.79523"
         x="-866.33856"
         height="13.464567"
         width="115.15748"
         id="rect4977"
         style="fill:#ff9955;fill-opacity:1;stroke:none;stroke-width:0.1;stroke-miterlimit:4;stroke-dasharray:none;stroke-opacity:1" />
      <g
         transform="translate(706.00394,232.97253)"
         id="g4873">
        <path
           style="fill:#666666;fill-opacity:1;stroke:none;stroke-width:0.1;stroke-miterlimit:4;stroke-dasharray:none;stroke-opacity:1"
           d="M 8.85827,651.0825 A 4.4291339,4.4291339 0 0 1 4.42914,655.5118 4.4291339,4.4291339 0 0 1 0,651.0825 a 4.4291339,4.4291339 0 0 1 4.42914,-4.4291 4.4291339,4.4291339 0 0 1 4.42913,4.4291 z"
           id="path4869"
           inkscape:connector-curvature="0" />
        <path
           inkscape:connector-curvature="0"
           id="path4871"
           d="m 164.76378,651.0826 a 4.4291339,4.4291339 0 0 1 -4.42913,4.4292 4.4291339,4.4291339 0 0 1 -4.42914,-4.4292 4.4291339,4.4291339 0 0 1 4.42914,-4.4291 4.4291339,4.4291339 0 0 1 4.42913,4.4291 z"
           style="fill:#666666;fill-opacity:1;stroke:none;stroke-width:0.1;stroke-miterlimit:4;stroke-dasharray:none;stroke-opacity:1" />
      </g>
      <rect
         y="736.29913"
         x="769.25195"
         height="9.9212599"
         width="38.267715"
         id="rect5052"
         style="opacity:1;fill:#666666;fill-opacity:1;stroke:none;stroke-width:22.79999924;stroke-linejoin:miter;stroke-miterlimit:4;stroke-dasharray:none;stroke-dashoffset:0.80000001;stroke-opacity:1" />
    </g>
    <g
       id="g6371">
      <rect
         y="715.74805"
         x="0"
         height="336.61417"
         width="301.18109"
         id="rect5109"
         style="fill:#e3dedb;fill-opacity:1;stroke:none;stroke-width:0.1;stroke-miterlimit:4;stroke-dasharray:none;stroke-opacity:1" />
      <path
         inkscape:connector-curvature="0"
         style="fill:#ff9955;fill-opacity:1;stroke:none;stroke-width:0.1;stroke-miterlimit:4;stroke-dasharray:none;stroke-opacity:1"
         d="m 17.7168,726.37772 0,13.46484 38.44531,0 0,9.92188 38.26758,0 0,-9.92188 38.44531,0 0,-13.46484 -115.1582,0 z"
         id="path5045" />
      <path
         id="rect5036"
         d="m 168.30664,726.37772 0,13.46484 38.44531,0 0,9.92188 38.26758,0 0,-9.92188 38.44531,0 0,-13.46484 -115.1582,0 z"
         style="fill:#ff9955;fill-opacity:1;stroke:none;stroke-width:0.1;stroke-miterlimit:4;stroke-dasharray:none;stroke-opacity:1"
         inkscape:connector-curvature="0" />
      <rect
         style="fill:#ff9955;fill-opacity:1;stroke:none;stroke-width:0.1;stroke-miterlimit:4;stroke-dasharray:none;stroke-opacity:1"
         id="rect5006"
         width="115.15748"
         height="13.464567"
         x="17.716545"
         y="1028.2677" />
      <rect
         y="1028.2677"
         x="168.30707"
         height="13.464567"
         width="115.15748"
         id="rect5008"
         style="fill:#ff9955;fill-opacity:1;stroke:none;stroke-width:0.1;stroke-miterlimit:4;stroke-dasharray:none;stroke-opacity:1" />
      <rect
         transform="matrix(0,-1,1,0,0,0)"
         y="17.716553"
         x="-1016.9291"
         height="13.464567"
         width="115.15748"
         id="rect5002"
         style="fill:#ff9955;fill-opacity:1;stroke:none;stroke-width:0.1;stroke-miterlimit:4;stroke-dasharray:none;stroke-opacity:1" />
      <rect
         style="fill:#ff9955;fill-opacity:1;stroke:none;stroke-width:0.1;stroke-miterlimit:4;stroke-dasharray:none;stroke-opacity:1"
         id="rect5004"
         width="115.15748"
         height="13.464567"
         x="-866.33856"
         y="17.716553"
         transform="matrix(0,-1,1,0,0,0)" />
      <rect
         style="fill:#ff9955;fill-opacity:1;stroke:none;stroke-width:0.1;stroke-miterlimit:4;stroke-dasharray:none;stroke-opacity:1"
         id="rect5000"
         width="115.15748"
         height="13.464567"
         x="-1016.9291"
         y="269.99997"
         transform="matrix(0,-1,1,0,0,0)" />
      <rect
         transform="matrix(0,-1,1,0,0,0)"
         y="269.99997"
         x="-866.33856"
         height="13.464567"
         width="115.15748"
         id="rect4998"
         style="fill:#ff9955;fill-opacity:1;stroke:none;stroke-width:0.1;stroke-miterlimit:4;stroke-dasharray:none;stroke-opacity:1" />
      <path
         style="fill:#666666;fill-opacity:1;stroke:none;stroke-width:0.1;stroke-miterlimit:4;stroke-dasharray:none;stroke-opacity:1"
         d="m 68.20867,813.18891 a 4.4291339,4.4291339 0 0 1 -4.42913,4.42924 4.4291339,4.4291339 0 0 1 -4.42914,-4.42924 4.4291339,4.4291339 0 0 1 4.42914,-4.4291 4.4291339,4.4291339 0 0 1 4.42913,4.4291 z"
         id="path4825"
         inkscape:connector-curvature="0" />
      <path
         inkscape:connector-curvature="0"
         id="path4827"
         d="m 88.5824,1000.098 a 4.4289989,4.4291339 0 0 1 -4.42899,4.4292 4.4289989,4.4291339 0 0 1 -4.42901,-4.4292 4.4289989,4.4291339 0 0 1 4.42901,-4.42907 4.4289989,4.4291339 0 0 1 4.42899,4.42907 z"
         style="fill:#666666;fill-opacity:1;stroke:none;stroke-width:0.1;stroke-miterlimit:4;stroke-dasharray:none;stroke-opacity:1" />
      <path
         style="fill:#666666;fill-opacity:1;stroke:none;stroke-width:0.1;stroke-miterlimit:4;stroke-dasharray:none;stroke-opacity:1"
         d="m 187.79527,1000.0984 a 4.4291339,4.4291339 0 0 1 -4.42913,4.4292 4.4291339,4.4291339 0 0 1 -4.42914,-4.4292 4.4291339,4.4291339 0 0 1 4.42914,-4.42907 4.4291339,4.4291339 0 0 1 4.42913,4.42907 z"
         id="path4829"
         inkscape:connector-curvature="0" />
      <path
         inkscape:connector-curvature="0"
         id="path4831"
         d="m 241.8307,818.50388 a 4.4291339,4.4291339 0 0 1 -4.42913,4.4292 4.4291339,4.4291339 0 0 1 -4.42914,-4.4292 4.4291339,4.4291339 0 0 1 4.42914,-4.4291 4.4291339,4.4291339 0 0 1 4.42913,4.4291 z"
         style="fill:#666666;fill-opacity:1;stroke:none;stroke-width:0.1;stroke-miterlimit:4;stroke-dasharray:none;stroke-opacity:1" />
    </g>
    <path
       id="path5065"
       d="m 336.61444,574.01584 0,3.54297 0,10.62891 -17.7168,0 0,95.66992 17.7168,0 0,10.63086 0,3.54297 115.1582,0 0,-3.54297 0,-10.63086 35.43164,0 0,14.17383 115.1582,0 0,-3.54297 0,-10.63086 17.7168,0 0,-95.66992 -17.7168,0 0,-10.62891 0,-3.54297 -115.1582,0 0,14.17188 -35.43164,0 0,-10.62891 0,-3.54297 -115.1582,0 z"
       style="fill:#e3dedb;fill-opacity:1;stroke:none;stroke-width:0.1;stroke-miterlimit:4;stroke-dasharray:none;stroke-opacity:1"
       inkscape:connector-curvature="0" />
    <path
       inkscape:connector-curvature="0"
       id="path5083"
       d="m 1123.227,715.74881 0,35.4336 0,0 0,-0.002 -14.1719,0 0,115.15821 3.5429,0 10.629,0 0,0 0,35.43359 0,0 -10.629,0 -3.5429,0 0,115.15629 3.5429,0 0,0 10.6309,0 0,35.4317 106.2988,0 0,-35.4317 10.6309,0 0,0 3.541,0 0,-115.15629 -3.541,0 -10.6309,0 0,-35.43359 10.6309,0 3.541,0 0,-115.15821 -14.1719,0 0,-35.43164 -106.2988,0 z"
       style="fill:#e3dedb;fill-opacity:1;stroke:none;stroke-width:0.1;stroke-miterlimit:4;stroke-dasharray:none;stroke-opacity:1" />
  </g>
</svg>
