  0
SECTION
  2
HEADER
  9
$ACADVER
  1
AC1014
  9
$HANDSEED
  5
FFFF
  9
$MEASUREMENT
 70
     1
  0
ENDSEC
  0
SECTION
  2
TABLES
  0
TABLE
  2
VPORT
  5
8
330
0
100
AcDbSymbolTable
 70
     4
  0
VPORT
  5
2E
330
8
100
AcDbSymbolTableRecord
100
AcDbViewportTableRecord
  2
*ACTIVE
 70
     0
 10
0.0
 20
0.0
 11
1.0
 21
1.0
 12
210.0
 22
148.5
 13
0.0
 23
0.0
 14
10.0
 24
10.0
 15
10.0
 25
10.0
 16
0.0
 26
0.0
 36
1.0
 17
0.0
 27
0.0
 37
0.0
 40
341.0
 41
1.24
 42
50.0
 43
0.0
 44
0.0
 50
0.0
 51
0.0
 71
     0
 72
   100
 73
     1
 74
     3
 75
     0
 76
     0
 77
     0
 78
     0
  0
ENDTAB
  0
TABLE
  2
LTYPE
  5
5
330
0
100
AcDbSymbolTable
 70
     1
  0
LTYPE
  5
14
330
5
100
AcDbSymbolTableRecord
100
AcDbLinetypeTableRecord
  2
BYBLOCK
 70
     0
  3

 72
    65
 73
     0
 40
0.0
  0
LTYPE
  5
15
330
5
100
AcDbSymbolTableRecord
100
AcDbLinetypeTableRecord
  2
BYLAYER
 70
     0
  3

 72
    65
 73
     0
 40
0.0
  0
LTYPE
  5
16
330
5
100
AcDbSymbolTableRecord
100
AcDbLinetypeTableRecord
  2
CONTINUOUS
 70
     0
  3
Solid line
 72
    65
 73
     0
 40
0.0
  0
ENDTAB
  0
TABLE
  2
LAYER
  5
2
100
AcDbSymbolTable
 70
2
  0
LAYER
  5
50
100
AcDbSymbolTableRecord
100
AcDbLayerTableRecord
  2
0
 70
0
  6
CONTINUOUS
  0
LAYER
  5
51
100
AcDbSymbolTableRecord
100
AcDbLayerTableRecord
  2
Layer_1
 70
0
  6
CONTINUOUS
  0
ENDTAB
  0
TABLE
  2
STYLE
  5
3
330
0
100
AcDbSymbolTable
 70
     1
  0
STYLE
  5
11
330
3
100
AcDbSymbolTableRecord
100
AcDbTextStyleTableRecord
  2
STANDARD
 70
     0
 40
0.0
 41
1.0
 50
0.0
 71
     0
 42
2.5
  3
txt
  4

  0
ENDTAB
  0
TABLE
  2
VIEW
  5
6
330
0
100
AcDbSymbolTable
 70
     0
  0
ENDTAB
  0
TABLE
  2
UCS
  5
7
330
0
100
AcDbSymbolTable
 70
     0
  0
ENDTAB
  0
TABLE
  2
APPID
  5
9
330
0
100
AcDbSymbolTable
 70
     2
  0
APPID
  5
12
330
9
100
AcDbSymbolTableRecord
100
AcDbRegAppTableRecord
  2
ACAD
 70
     0
  0
ENDTAB
  0
TABLE
  2
DIMSTYLE
  5
A
330
0
100
AcDbSymbolTable
 70
     1
  0
DIMSTYLE
105
27
330
A
100
AcDbSymbolTableRecord
100
AcDbDimStyleTableRecord
  2
ISO-25
 70
     0
  3

  4

  5

  6

  7

 40
1.0
 41
2.5
 42
0.625
 43
3.75
 44
1.25
 45
0.0
 46
0.0
 47
0.0
 48
0.0
140
2.5
141
2.5
142
0.0
143
0.03937007874016
144
1.0
145
0.0
146
1.0
147
0.625
 71
     0
 72
     0
 73
     0
 74
     0
 75
     0
 76
     0
 77
     1
 78
     8
170
     0
171
     3
172
     1
173
     0
174
     0
175
     0
176
     0
177
     0
178
     0
270
     2
271
     2
272
     2
273
     2
274
     3
340
11
275
     0
280
     0
281
     0
282
     0
283
     0
284
     8
285
     0
286
     0
287
     3
288
     0
  0
ENDTAB
  0
TABLE
  2
BLOCK_RECORD
  5
1
330
0
100
AcDbSymbolTable
 70
     1
  0
BLOCK_RECORD
  5
1F
330
1
100
AcDbSymbolTableRecord
100
AcDbBlockTableRecord
  2
*MODEL_SPACE
  0
BLOCK_RECORD
  5
1B
330
1
100
AcDbSymbolTableRecord
100
AcDbBlockTableRecord
  2
*PAPER_SPACE
  0
ENDTAB
  0
ENDSEC
  0
SECTION
  2
BLOCKS
  0
BLOCK
  5
20
330
1F
100
AcDbEntity
  8
0
100
AcDbBlockBegin
  2
*MODEL_SPACE
 70
     0
 10
0.0
 20
0.0
 30
0.0
  3
*MODEL_SPACE
  1

  0
ENDBLK
  5
21
330
1F
100
AcDbEntity
  8
0
100
AcDbBlockEnd
  0
BLOCK
  5
1C
330
1B
100
AcDbEntity
 67
     1
  8
0
100
AcDbBlockBegin
  2
*PAPER_SPACE
  1

  0
ENDBLK
  5
1D
330
1B
100
AcDbEntity
 67
     1
  8
0
100
AcDbBlockEnd
  0
ENDSEC
  0
SECTION
  2
ENTITIES
  0
LINE
  5
100
100
AcDbEntity
  8
Layer_1
 62
7
100
AcDbLine
 10
-45.115452
 20
148.741505
 30
0.0
 11
-46.365470
 21
148.741505
 31
0.0
  0
LINE
  5
101
100
AcDbEntity
  8
Layer_1
 62
7
100
AcDbLine
 10
-111.115517
 20
148.741505
 30
0.0
 11
-112.365508
 21
148.741505
 31
0.0
  0
LINE
  5
102
100
AcDbEntity
  8
Layer_1
 62
7
100
AcDbLine
 10
98.000086
 20
123.000039
 30
0.0
 11
98.000086
 21
129.000044
 31
0.0
  0
LINE
  5
103
100
AcDbEntity
  8
Layer_1
 62
7
100
AcDbLine
 10
98.000086
 20
129.000044
 30
0.0
 11
108.000094
 21
129.000044
 31
0.0
  0
LINE
  5
104
100
AcDbEntity
  8
Layer_1
 62
7
100
AcDbLine
 10
108.000094
 20
129.000044
 30
0.0
 11
108.000094
 21
100.622975
 31
0.0
  0
LINE
  5
105
100
AcDbEntity
  8
Layer_1
 62
7
100
AcDbLine
 10
108.000094
 20
100.622975
 30
0.0
 11
114.000111
 21
100.622975
 31
0.0
  0
LINE
  5
106
100
AcDbEntity
  8
Layer_1
 62
7
100
AcDbLine
 10
114.000111
 20
100.622975
 30
0.0
 11
114.000111
 21
94.722970
 31
0.0
  0
LINE
  5
107
100
AcDbEntity
  8
Layer_1
 62
7
100
AcDbLine
 10
114.000111
 20
94.722970
 30
0.0
 11
110.300093
 21
94.722970
 31
0.0
  0
LINE
  5
108
100
AcDbEntity
  8
Layer_1
 62
7
100
AcDbLine
 10
110.300093
 20
94.722970
 30
0.0
 11
110.300093
 21
91.022966
 31
0.0
  0
LINE
  5
109
100
AcDbEntity
  8
Layer_1
 62
7
100
AcDbLine
 10
110.300093
 20
91.022966
 30
0.0
 11
114.000111
 21
91.022966
 31
0.0
  0
LINE
  5
10a
100
AcDbEntity
  8
Layer_1
 62
7
100
AcDbLine
 10
114.000111
 20
91.022966
 30
0.0
 11
114.000111
 21
85.122961
 31
0.0
  0
LINE
  5
10b
100
AcDbEntity
  8
Layer_1
 62
7
100
AcDbLine
 10
114.000111
 20
85.122961
 30
0.0
 11
108.000094
 21
85.122961
 31
0.0
  0
LINE
  5
10c
100
AcDbEntity
  8
Layer_1
 62
7
100
AcDbLine
 10
108.000094
 20
85.122961
 30
0.0
 11
108.000094
 21
56.999985
 31
0.0
  0
LINE
  5
10d
100
AcDbEntity
  8
Layer_1
 62
7
100
AcDbLine
 10
108.000094
 20
56.999985
 30
0.0
 11
98.000086
 21
56.999985
 31
0.0
  0
LINE
  5
10e
100
AcDbEntity
  8
Layer_1
 62
7
100
AcDbLine
 10
98.000086
 20
56.999985
 30
0.0
 11
98.000086
 21
62.999987
 31
0.0
  0
LINE
  5
10f
100
AcDbEntity
  8
Layer_1
 62
7
100
AcDbLine
 10
98.000086
 20
62.999987
 30
0.0
 11
91.550067
 21
62.999987
 31
0.0
  0
LINE
  5
110
100
AcDbEntity
  8
Layer_1
 62
7
100
AcDbLine
 10
91.550067
 20
62.999987
 30
0.0
 11
91.550067
 21
64.099990
 31
0.0
  0
LINE
  5
111
100
AcDbEntity
  8
Layer_1
 62
7
100
AcDbLine
 10
91.550067
 20
64.099990
 30
0.0
 11
93.500081
 21
64.099990
 31
0.0
  0
LINE
  5
112
100
AcDbEntity
  8
Layer_1
 62
7
100
AcDbLine
 10
93.500081
 20
64.099990
 30
0.0
 11
93.500081
 21
66.599991
 31
0.0
  0
LINE
  5
113
100
AcDbEntity
  8
Layer_1
 62
7
100
AcDbLine
 10
93.500081
 20
66.599991
 30
0.0
 11
91.550067
 21
66.599991
 31
0.0
  0
LINE
  5
114
100
AcDbEntity
  8
Layer_1
 62
7
100
AcDbLine
 10
91.550067
 20
66.599991
 30
0.0
 11
91.550067
 21
69.099994
 31
0.0
  0
LINE
  5
115
100
AcDbEntity
  8
Layer_1
 62
7
100
AcDbLine
 10
91.550067
 20
69.099994
 30
0.0
 11
88.450081
 21
69.099994
 31
0.0
  0
LINE
  5
116
100
AcDbEntity
  8
Layer_1
 62
7
100
AcDbLine
 10
88.450081
 20
69.099994
 30
0.0
 11
88.450081
 21
66.599991
 31
0.0
  0
LINE
  5
117
100
AcDbEntity
  8
Layer_1
 62
7
100
AcDbLine
 10
88.450081
 20
66.599991
 30
0.0
 11
86.500067
 21
66.599991
 31
0.0
  0
LINE
  5
118
100
AcDbEntity
  8
Layer_1
 62
7
100
AcDbLine
 10
86.500067
 20
66.599991
 30
0.0
 11
86.500067
 21
64.099990
 31
0.0
  0
LINE
  5
119
100
AcDbEntity
  8
Layer_1
 62
7
100
AcDbLine
 10
86.500067
 20
64.099990
 30
0.0
 11
88.450081
 21
64.099990
 31
0.0
  0
LINE
  5
11a
100
AcDbEntity
  8
Layer_1
 62
7
100
AcDbLine
 10
88.450081
 20
64.099990
 30
0.0
 11
88.450081
 21
62.999987
 31
0.0
  0
LINE
  5
11b
100
AcDbEntity
  8
Layer_1
 62
7
100
AcDbLine
 10
88.450081
 20
62.999987
 30
0.0
 11
82.000062
 21
62.999987
 31
0.0
  0
LINE
  5
11c
100
AcDbEntity
  8
Layer_1
 62
7
100
AcDbLine
 10
82.000062
 20
62.999987
 30
0.0
 11
82.000062
 21
56.999985
 31
0.0
  0
LINE
  5
11d
100
AcDbEntity
  8
Layer_1
 62
7
100
AcDbLine
 10
82.000062
 20
56.999985
 30
0.0
 11
72.000054
 21
56.999985
 31
0.0
  0
LINE
  5
11e
100
AcDbEntity
  8
Layer_1
 62
7
100
AcDbLine
 10
72.000054
 20
56.999985
 30
0.0
 11
72.000054
 21
62.999987
 31
0.0
  0
LINE
  5
11f
100
AcDbEntity
  8
Layer_1
 62
7
100
AcDbLine
 10
72.000054
 20
62.999987
 30
0.0
 11
62.000045
 21
62.999987
 31
0.0
  0
LINE
  5
120
100
AcDbEntity
  8
Layer_1
 62
7
100
AcDbLine
 10
62.000045
 20
62.999987
 30
0.0
 11
62.000045
 21
56.999985
 31
0.0
  0
LINE
  5
121
100
AcDbEntity
  8
Layer_1
 62
7
100
AcDbLine
 10
62.000045
 20
56.999985
 30
0.0
 11
52.000037
 21
56.999985
 31
0.0
  0
LINE
  5
122
100
AcDbEntity
  8
Layer_1
 62
7
100
AcDbLine
 10
52.000037
 20
56.999985
 30
0.0
 11
52.000037
 21
62.999987
 31
0.0
  0
LINE
  5
123
100
AcDbEntity
  8
Layer_1
 62
7
100
AcDbLine
 10
52.000037
 20
62.999987
 30
0.0
 11
42.000029
 21
62.999987
 31
0.0
  0
LINE
  5
124
100
AcDbEntity
  8
Layer_1
 62
7
100
AcDbLine
 10
42.000029
 20
62.999987
 30
0.0
 11
42.000029
 21
56.999985
 31
0.0
  0
LINE
  5
125
100
AcDbEntity
  8
Layer_1
 62
7
100
AcDbLine
 10
42.000029
 20
56.999985
 30
0.0
 11
32.000021
 21
56.999985
 31
0.0
  0
LINE
  5
126
100
AcDbEntity
  8
Layer_1
 62
7
100
AcDbLine
 10
32.000021
 20
56.999985
 30
0.0
 11
32.000021
 21
62.999987
 31
0.0
  0
LINE
  5
127
100
AcDbEntity
  8
Layer_1
 62
7
100
AcDbLine
 10
32.000021
 20
62.999987
 30
0.0
 11
25.550029
 21
62.999987
 31
0.0
  0
LINE
  5
128
100
AcDbEntity
  8
Layer_1
 62
7
100
AcDbLine
 10
25.550029
 20
62.999987
 30
0.0
 11
25.550029
 21
64.099990
 31
0.0
  0
LINE
  5
129
100
AcDbEntity
  8
Layer_1
 62
7
100
AcDbLine
 10
25.550029
 20
64.099990
 30
0.0
 11
27.500016
 21
64.099990
 31
0.0
  0
LINE
  5
12a
100
AcDbEntity
  8
Layer_1
 62
7
100
AcDbLine
 10
27.500016
 20
64.099990
 30
0.0
 11
27.500016
 21
66.599991
 31
0.0
  0
LINE
  5
12b
100
AcDbEntity
  8
Layer_1
 62
7
100
AcDbLine
 10
27.500016
 20
66.599991
 30
0.0
 11
25.550029
 21
66.599991
 31
0.0
  0
LINE
  5
12c
100
AcDbEntity
  8
Layer_1
 62
7
100
AcDbLine
 10
25.550029
 20
66.599991
 30
0.0
 11
25.550029
 21
69.099994
 31
0.0
  0
LINE
  5
12d
100
AcDbEntity
  8
Layer_1
 62
7
100
AcDbLine
 10
25.550029
 20
69.099994
 30
0.0
 11
22.450016
 21
69.099994
 31
0.0
  0
LINE
  5
12e
100
AcDbEntity
  8
Layer_1
 62
7
100
AcDbLine
 10
22.450016
 20
69.099994
 30
0.0
 11
22.450016
 21
66.599991
 31
0.0
  0
LINE
  5
12f
100
AcDbEntity
  8
Layer_1
 62
7
100
AcDbLine
 10
22.450016
 20
66.599991
 30
0.0
 11
20.500030
 21
66.599991
 31
0.0
  0
LINE
  5
130
100
AcDbEntity
  8
Layer_1
 62
7
100
AcDbLine
 10
20.500030
 20
66.599991
 30
0.0
 11
20.500030
 21
64.099990
 31
0.0
  0
LINE
  5
131
100
AcDbEntity
  8
Layer_1
 62
7
100
AcDbLine
 10
20.500030
 20
64.099990
 30
0.0
 11
22.450016
 21
64.099990
 31
0.0
  0
LINE
  5
132
100
AcDbEntity
  8
Layer_1
 62
7
100
AcDbLine
 10
22.450016
 20
64.099990
 30
0.0
 11
22.450016
 21
62.999987
 31
0.0
  0
LINE
  5
133
100
AcDbEntity
  8
Layer_1
 62
7
100
AcDbLine
 10
22.450016
 20
62.999987
 30
0.0
 11
16.000024
 21
62.999987
 31
0.0
  0
LINE
  5
134
100
AcDbEntity
  8
Layer_1
 62
7
100
AcDbLine
 10
16.000024
 20
62.999987
 30
0.0
 11
16.000024
 21
56.999985
 31
0.0
  0
LINE
  5
135
100
AcDbEntity
  8
Layer_1
 62
7
100
AcDbLine
 10
16.000024
 20
56.999985
 30
0.0
 11
6.000016
 21
56.999985
 31
0.0
  0
LINE
  5
136
100
AcDbEntity
  8
Layer_1
 62
7
100
AcDbLine
 10
6.000016
 20
56.999985
 30
0.0
 11
6.000016
 21
85.122961
 31
0.0
  0
LINE
  5
137
100
AcDbEntity
  8
Layer_1
 62
7
100
AcDbLine
 10
6.000016
 20
85.122961
 30
0.0
 11
0.000000
 21
85.122961
 31
0.0
  0
LINE
  5
138
100
AcDbEntity
  8
Layer_1
 62
7
100
AcDbLine
 10
0.000000
 20
85.122961
 30
0.0
 11
0.000000
 21
91.022966
 31
0.0
  0
LINE
  5
139
100
AcDbEntity
  8
Layer_1
 62
7
100
AcDbLine
 10
0.000000
 20
91.022966
 30
0.0
 11
3.700018
 21
91.022966
 31
0.0
  0
LINE
  5
13a
100
AcDbEntity
  8
Layer_1
 62
7
100
AcDbLine
 10
3.700018
 20
91.022966
 30
0.0
 11
3.700018
 21
94.722970
 31
0.0
  0
LINE
  5
13b
100
AcDbEntity
  8
Layer_1
 62
7
100
AcDbLine
 10
3.700018
 20
94.722970
 30
0.0
 11
0.000000
 21
94.722970
 31
0.0
  0
LINE
  5
13c
100
AcDbEntity
  8
Layer_1
 62
7
100
AcDbLine
 10
0.000000
 20
94.722970
 30
0.0
 11
0.000000
 21
100.622975
 31
0.0
  0
LINE
  5
13d
100
AcDbEntity
  8
Layer_1
 62
7
100
AcDbLine
 10
0.000000
 20
100.622975
 30
0.0
 11
6.000016
 21
100.622975
 31
0.0
  0
LINE
  5
13e
100
AcDbEntity
  8
Layer_1
 62
7
100
AcDbLine
 10
6.000016
 20
100.622975
 30
0.0
 11
6.000016
 21
129.000044
 31
0.0
  0
LINE
  5
13f
100
AcDbEntity
  8
Layer_1
 62
7
100
AcDbLine
 10
6.000016
 20
129.000044
 30
0.0
 11
16.000024
 21
129.000044
 31
0.0
  0
LINE
  5
140
100
AcDbEntity
  8
Layer_1
 62
7
100
AcDbLine
 10
16.000024
 20
129.000044
 30
0.0
 11
16.000024
 21
123.000039
 31
0.0
  0
LINE
  5
141
100
AcDbEntity
  8
Layer_1
 62
7
100
AcDbLine
 10
16.000024
 20
123.000039
 30
0.0
 11
22.450016
 21
123.000039
 31
0.0
  0
LINE
  5
142
100
AcDbEntity
  8
Layer_1
 62
7
100
AcDbLine
 10
22.450016
 20
123.000039
 30
0.0
 11
22.450016
 21
121.900038
 31
0.0
  0
LINE
  5
143
100
AcDbEntity
  8
Layer_1
 62
7
100
AcDbLine
 10
22.450016
 20
121.900038
 30
0.0
 11
20.500030
 21
121.900038
 31
0.0
  0
LINE
  5
144
100
AcDbEntity
  8
Layer_1
 62
7
100
AcDbLine
 10
20.500030
 20
121.900038
 30
0.0
 11
20.500030
 21
119.400035
 31
0.0
  0
LINE
  5
145
100
AcDbEntity
  8
Layer_1
 62
7
100
AcDbLine
 10
20.500030
 20
119.400035
 30
0.0
 11
22.450016
 21
119.400035
 31
0.0
  0
LINE
  5
146
100
AcDbEntity
  8
Layer_1
 62
7
100
AcDbLine
 10
22.450016
 20
119.400035
 30
0.0
 11
22.450016
 21
116.900034
 31
0.0
  0
LINE
  5
147
100
AcDbEntity
  8
Layer_1
 62
7
100
AcDbLine
 10
22.450016
 20
116.900034
 30
0.0
 11
25.550029
 21
116.900034
 31
0.0
  0
LINE
  5
148
100
AcDbEntity
  8
Layer_1
 62
7
100
AcDbLine
 10
25.550029
 20
116.900034
 30
0.0
 11
25.550029
 21
119.400035
 31
0.0
  0
LINE
  5
149
100
AcDbEntity
  8
Layer_1
 62
7
100
AcDbLine
 10
25.550029
 20
119.400035
 30
0.0
 11
27.500016
 21
119.400035
 31
0.0
  0
LINE
  5
14a
100
AcDbEntity
  8
Layer_1
 62
7
100
AcDbLine
 10
27.500016
 20
119.400035
 30
0.0
 11
27.500016
 21
121.900038
 31
0.0
  0
LINE
  5
14b
100
AcDbEntity
  8
Layer_1
 62
7
100
AcDbLine
 10
27.500016
 20
121.900038
 30
0.0
 11
25.550029
 21
121.900038
 31
0.0
  0
LINE
  5
14c
100
AcDbEntity
  8
Layer_1
 62
7
100
AcDbLine
 10
25.550029
 20
121.900038
 30
0.0
 11
25.550029
 21
123.000039
 31
0.0
  0
LINE
  5
14d
100
AcDbEntity
  8
Layer_1
 62
7
100
AcDbLine
 10
25.550029
 20
123.000039
 30
0.0
 11
32.000021
 21
123.000039
 31
0.0
  0
LINE
  5
14e
100
AcDbEntity
  8
Layer_1
 62
7
100
AcDbLine
 10
32.000021
 20
123.000039
 30
0.0
 11
32.000021
 21
129.000044
 31
0.0
  0
LINE
  5
14f
100
AcDbEntity
  8
Layer_1
 62
7
100
AcDbLine
 10
32.000021
 20
129.000044
 30
0.0
 11
42.000029
 21
129.000044
 31
0.0
  0
LINE
  5
150
100
AcDbEntity
  8
Layer_1
 62
7
100
AcDbLine
 10
42.000029
 20
129.000044
 30
0.0
 11
42.000029
 21
123.000039
 31
0.0
  0
LINE
  5
151
100
AcDbEntity
  8
Layer_1
 62
7
100
AcDbLine
 10
42.000029
 20
123.000039
 30
0.0
 11
52.000037
 21
123.000039
 31
0.0
  0
LINE
  5
152
100
AcDbEntity
  8
Layer_1
 62
7
100
AcDbLine
 10
52.000037
 20
123.000039
 30
0.0
 11
52.000037
 21
129.000044
 31
0.0
  0
LINE
  5
153
100
AcDbEntity
  8
Layer_1
 62
7
100
AcDbLine
 10
52.000037
 20
129.000044
 30
0.0
 11
62.000045
 21
129.000044
 31
0.0
  0
LINE
  5
154
100
AcDbEntity
  8
Layer_1
 62
7
100
AcDbLine
 10
62.000045
 20
129.000044
 30
0.0
 11
62.000045
 21
123.000039
 31
0.0
  0
LINE
  5
155
100
AcDbEntity
  8
Layer_1
 62
7
100
AcDbLine
 10
62.000045
 20
123.000039
 30
0.0
 11
72.000054
 21
123.000039
 31
0.0
  0
LINE
  5
156
100
AcDbEntity
  8
Layer_1
 62
7
100
AcDbLine
 10
72.000054
 20
123.000039
 30
0.0
 11
72.000054
 21
129.000044
 31
0.0
  0
LINE
  5
157
100
AcDbEntity
  8
Layer_1
 62
7
100
AcDbLine
 10
72.000054
 20
129.000044
 30
0.0
 11
82.000062
 21
129.000044
 31
0.0
  0
LINE
  5
158
100
AcDbEntity
  8
Layer_1
 62
7
100
AcDbLine
 10
82.000062
 20
129.000044
 30
0.0
 11
82.000062
 21
123.000039
 31
0.0
  0
LINE
  5
159
100
AcDbEntity
  8
Layer_1
 62
7
100
AcDbLine
 10
82.000062
 20
123.000039
 30
0.0
 11
88.450081
 21
123.000039
 31
0.0
  0
LINE
  5
15a
100
AcDbEntity
  8
Layer_1
 62
7
100
AcDbLine
 10
88.450081
 20
123.000039
 30
0.0
 11
88.450081
 21
121.900038
 31
0.0
  0
LINE
  5
15b
100
AcDbEntity
  8
Layer_1
 62
7
100
AcDbLine
 10
88.450081
 20
121.900038
 30
0.0
 11
86.500067
 21
121.900038
 31
0.0
  0
LINE
  5
15c
100
AcDbEntity
  8
Layer_1
 62
7
100
AcDbLine
 10
86.500067
 20
121.900038
 30
0.0
 11
86.500067
 21
119.400035
 31
0.0
  0
LINE
  5
15d
100
AcDbEntity
  8
Layer_1
 62
7
100
AcDbLine
 10
86.500067
 20
119.400035
 30
0.0
 11
88.450081
 21
119.400035
 31
0.0
  0
LINE
  5
15e
100
AcDbEntity
  8
Layer_1
 62
7
100
AcDbLine
 10
88.450081
 20
119.400035
 30
0.0
 11
88.450081
 21
116.900034
 31
0.0
  0
LINE
  5
15f
100
AcDbEntity
  8
Layer_1
 62
7
100
AcDbLine
 10
88.450081
 20
116.900034
 30
0.0
 11
91.550067
 21
116.900034
 31
0.0
  0
LINE
  5
160
100
AcDbEntity
  8
Layer_1
 62
7
100
AcDbLine
 10
91.550067
 20
116.900034
 30
0.0
 11
91.550067
 21
119.400035
 31
0.0
  0
LINE
  5
161
100
AcDbEntity
  8
Layer_1
 62
7
100
AcDbLine
 10
91.550067
 20
119.400035
 30
0.0
 11
93.500081
 21
119.400035
 31
0.0
  0
LINE
  5
162
100
AcDbEntity
  8
Layer_1
 62
7
100
AcDbLine
 10
93.500081
 20
119.400035
 30
0.0
 11
93.500081
 21
121.900038
 31
0.0
  0
LINE
  5
163
100
AcDbEntity
  8
Layer_1
 62
7
100
AcDbLine
 10
93.500081
 20
121.900038
 30
0.0
 11
91.550067
 21
121.900038
 31
0.0
  0
LINE
  5
164
100
AcDbEntity
  8
Layer_1
 62
7
100
AcDbLine
 10
91.550067
 20
121.900038
 30
0.0
 11
91.550067
 21
123.000039
 31
0.0
  0
LINE
  5
165
100
AcDbEntity
  8
Layer_1
 62
7
100
AcDbLine
 10
91.550067
 20
123.000039
 30
0.0
 11
98.000086
 21
123.000039
 31
0.0
  0
LINE
  5
166
100
AcDbEntity
  8
Layer_1
 62
7
100
AcDbLine
 10
98.000086
 20
123.000039
 30
0.0
 11
98.000086
 21
123.000039
 31
0.0
  0
LINE
  5
167
100
AcDbEntity
  8
Layer_1
 62
7
100
AcDbLine
 10
310.000057
 20
98.600048
 30
0.0
 11
304.000041
 21
98.600048
 31
0.0
  0
LINE
  5
168
100
AcDbEntity
  8
Layer_1
 62
7
100
AcDbLine
 10
304.000041
 20
98.600048
 30
0.0
 11
304.000041
 21
108.999994
 31
0.0
  0
LINE
  5
169
100
AcDbEntity
  8
Layer_1
 62
7
100
AcDbLine
 10
304.000041
 20
108.999994
 30
0.0
 11
281.877062
 21
108.999994
 31
0.0
  0
LINE
  5
16a
100
AcDbEntity
  8
Layer_1
 62
7
100
AcDbLine
 10
281.877062
 20
108.999994
 30
0.0
 11
281.877062
 21
103.000034
 31
0.0
  0
LINE
  5
16b
100
AcDbEntity
  8
Layer_1
 62
7
100
AcDbLine
 10
281.877062
 20
103.000034
 30
0.0
 11
275.677060
 21
103.000034
 31
0.0
  0
LINE
  5
16c
100
AcDbEntity
  8
Layer_1
 62
7
100
AcDbLine
 10
275.677060
 20
103.000034
 30
0.0
 11
275.677060
 21
101.900016
 31
0.0
  0
LINE
  5
16d
100
AcDbEntity
  8
Layer_1
 62
7
100
AcDbLine
 10
275.677060
 20
101.900016
 30
0.0
 11
277.627057
 21
101.900016
 31
0.0
  0
LINE
  5
16e
100
AcDbEntity
  8
Layer_1
 62
7
100
AcDbLine
 10
277.627057
 20
101.900016
 30
0.0
 11
277.627057
 21
99.400035
 31
0.0
  0
LINE
  5
16f
100
AcDbEntity
  8
Layer_1
 62
7
100
AcDbLine
 10
277.627057
 20
99.400035
 30
0.0
 11
275.677060
 21
99.400035
 31
0.0
  0
LINE
  5
170
100
AcDbEntity
  8
Layer_1
 62
7
100
AcDbLine
 10
275.677060
 20
99.400035
 30
0.0
 11
275.677060
 21
96.900026
 31
0.0
  0
LINE
  5
171
100
AcDbEntity
  8
Layer_1
 62
7
100
AcDbLine
 10
275.677060
 20
96.900026
 30
0.0
 11
272.577058
 21
96.900026
 31
0.0
  0
LINE
  5
172
100
AcDbEntity
  8
Layer_1
 62
7
100
AcDbLine
 10
272.577058
 20
96.900026
 30
0.0
 11
272.577058
 21
99.400035
 31
0.0
  0
LINE
  5
173
100
AcDbEntity
  8
Layer_1
 62
7
100
AcDbLine
 10
272.577058
 20
99.400035
 30
0.0
 11
270.627057
 21
99.400035
 31
0.0
  0
LINE
  5
174
100
AcDbEntity
  8
Layer_1
 62
7
100
AcDbLine
 10
270.627057
 20
99.400035
 30
0.0
 11
270.627057
 21
101.900016
 31
0.0
  0
LINE
  5
175
100
AcDbEntity
  8
Layer_1
 62
7
100
AcDbLine
 10
270.627057
 20
101.900016
 30
0.0
 11
272.577058
 21
101.900016
 31
0.0
  0
LINE
  5
176
100
AcDbEntity
  8
Layer_1
 62
7
100
AcDbLine
 10
272.577058
 20
101.900016
 30
0.0
 11
272.577058
 21
103.000034
 31
0.0
  0
LINE
  5
177
100
AcDbEntity
  8
Layer_1
 62
7
100
AcDbLine
 10
272.577058
 20
103.000034
 30
0.0
 11
266.377050
 21
103.000034
 31
0.0
  0
LINE
  5
178
100
AcDbEntity
  8
Layer_1
 62
7
100
AcDbLine
 10
266.377050
 20
103.000034
 30
0.0
 11
266.377050
 21
108.999994
 31
0.0
  0
LINE
  5
179
100
AcDbEntity
  8
Layer_1
 62
7
100
AcDbLine
 10
266.377050
 20
108.999994
 30
0.0
 11
243.999980
 21
108.999994
 31
0.0
  0
LINE
  5
17a
100
AcDbEntity
  8
Layer_1
 62
7
100
AcDbLine
 10
243.999980
 20
108.999994
 30
0.0
 11
243.999980
 21
98.600048
 31
0.0
  0
LINE
  5
17b
100
AcDbEntity
  8
Layer_1
 62
7
100
AcDbLine
 10
243.999980
 20
98.600048
 30
0.0
 11
238.000035
 21
98.600048
 31
0.0
  0
LINE
  5
17c
100
AcDbEntity
  8
Layer_1
 62
7
100
AcDbLine
 10
238.000035
 20
98.600048
 30
0.0
 11
237.999976
 21
88.200018
 31
0.0
  0
LINE
  5
17d
100
AcDbEntity
  8
Layer_1
 62
7
100
AcDbLine
 10
237.999976
 20
88.200018
 30
0.0
 11
243.999980
 21
88.200018
 31
0.0
  0
LINE
  5
17e
100
AcDbEntity
  8
Layer_1
 62
7
100
AcDbLine
 10
243.999980
 20
88.200018
 30
0.0
 11
243.999980
 21
84.550010
 31
0.0
  0
LINE
  5
17f
100
AcDbEntity
  8
Layer_1
 62
7
100
AcDbLine
 10
243.999980
 20
84.550010
 30
0.0
 11
243.999980
 21
81.450025
 31
0.0
  0
LINE
  5
180
100
AcDbEntity
  8
Layer_1
 62
7
100
AcDbLine
 10
243.999980
 20
81.450025
 30
0.0
 11
243.999980
 21
77.800017
 31
0.0
  0
LINE
  5
181
100
AcDbEntity
  8
Layer_1
 62
7
100
AcDbLine
 10
243.999980
 20
77.800017
 30
0.0
 11
237.999976
 21
77.800017
 31
0.0
  0
LINE
  5
182
100
AcDbEntity
  8
Layer_1
 62
7
100
AcDbLine
 10
237.999976
 20
77.800017
 30
0.0
 11
237.999976
 21
67.400015
 31
0.0
  0
LINE
  5
183
100
AcDbEntity
  8
Layer_1
 62
7
100
AcDbLine
 10
237.999976
 20
67.400015
 30
0.0
 11
243.999980
 21
67.400015
 31
0.0
  0
LINE
  5
184
100
AcDbEntity
  8
Layer_1
 62
7
100
AcDbLine
 10
243.999980
 20
67.400015
 30
0.0
 11
243.999980
 21
56.999985
 31
0.0
  0
LINE
  5
185
100
AcDbEntity
  8
Layer_1
 62
7
100
AcDbLine
 10
243.999980
 20
56.999985
 30
0.0
 11
266.377050
 21
56.999985
 31
0.0
  0
LINE
  5
186
100
AcDbEntity
  8
Layer_1
 62
7
100
AcDbLine
 10
266.377050
 20
56.999985
 30
0.0
 11
266.377050
 21
63.000001
 31
0.0
  0
LINE
  5
187
100
AcDbEntity
  8
Layer_1
 62
7
100
AcDbLine
 10
266.377050
 20
63.000001
 30
0.0
 11
272.577058
 21
63.000001
 31
0.0
  0
LINE
  5
188
100
AcDbEntity
  8
Layer_1
 62
7
100
AcDbLine
 10
272.577058
 20
63.000001
 30
0.0
 11
272.577058
 21
64.099990
 31
0.0
  0
LINE
  5
189
100
AcDbEntity
  8
Layer_1
 62
7
100
AcDbLine
 10
272.577058
 20
64.099990
 30
0.0
 11
270.627057
 21
64.099990
 31
0.0
  0
LINE
  5
18a
100
AcDbEntity
  8
Layer_1
 62
7
100
AcDbLine
 10
270.627057
 20
64.099990
 30
0.0
 11
270.627057
 21
66.599999
 31
0.0
  0
LINE
  5
18b
100
AcDbEntity
  8
Layer_1
 62
7
100
AcDbLine
 10
270.627057
 20
66.599999
 30
0.0
 11
272.577058
 21
66.599999
 31
0.0
  0
LINE
  5
18c
100
AcDbEntity
  8
Layer_1
 62
7
100
AcDbLine
 10
272.577058
 20
66.599999
 30
0.0
 11
272.577058
 21
69.100009
 31
0.0
  0
LINE
  5
18d
100
AcDbEntity
  8
Layer_1
 62
7
100
AcDbLine
 10
272.577058
 20
69.100009
 30
0.0
 11
275.677060
 21
69.100009
 31
0.0
  0
LINE
  5
18e
100
AcDbEntity
  8
Layer_1
 62
7
100
AcDbLine
 10
275.677060
 20
69.100009
 30
0.0
 11
275.677060
 21
66.599999
 31
0.0
  0
LINE
  5
18f
100
AcDbEntity
  8
Layer_1
 62
7
100
AcDbLine
 10
275.677060
 20
66.599999
 30
0.0
 11
277.627057
 21
66.599999
 31
0.0
  0
LINE
  5
190
100
AcDbEntity
  8
Layer_1
 62
7
100
AcDbLine
 10
277.627057
 20
66.599999
 30
0.0
 11
277.627057
 21
64.099990
 31
0.0
  0
LINE
  5
191
100
AcDbEntity
  8
Layer_1
 62
7
100
AcDbLine
 10
277.627057
 20
64.099990
 30
0.0
 11
275.677060
 21
64.099990
 31
0.0
  0
LINE
  5
192
100
AcDbEntity
  8
Layer_1
 62
7
100
AcDbLine
 10
275.677060
 20
64.099990
 30
0.0
 11
275.677060
 21
63.000001
 31
0.0
  0
LINE
  5
193
100
AcDbEntity
  8
Layer_1
 62
7
100
AcDbLine
 10
275.677060
 20
63.000001
 30
0.0
 11
281.877062
 21
63.000001
 31
0.0
  0
LINE
  5
194
100
AcDbEntity
  8
Layer_1
 62
7
100
AcDbLine
 10
281.877062
 20
63.000001
 30
0.0
 11
281.877062
 21
56.999985
 31
0.0
  0
LINE
  5
195
100
AcDbEntity
  8
Layer_1
 62
7
100
AcDbLine
 10
281.877062
 20
56.999985
 30
0.0
 11
304.000041
 21
56.999985
 31
0.0
  0
LINE
  5
196
100
AcDbEntity
  8
Layer_1
 62
7
100
AcDbLine
 10
304.000041
 20
56.999985
 30
0.0
 11
304.000041
 21
67.400015
 31
0.0
  0
LINE
  5
197
100
AcDbEntity
  8
Layer_1
 62
7
100
AcDbLine
 10
304.000041
 20
67.400015
 30
0.0
 11
310.000029
 21
67.400015
 31
0.0
  0
LINE
  5
198
100
AcDbEntity
  8
Layer_1
 62
7
100
AcDbLine
 10
310.000029
 20
67.400015
 30
0.0
 11
310.000029
 21
77.800017
 31
0.0
  0
LINE
  5
199
100
AcDbEntity
  8
Layer_1
 62
7
100
AcDbLine
 10
310.000029
 20
77.800017
 30
0.0
 11
304.000041
 21
77.800017
 31
0.0
  0
LINE
  5
19a
100
AcDbEntity
  8
Layer_1
 62
7
100
AcDbLine
 10
304.000041
 20
77.800017
 30
0.0
 11
304.000041
 21
81.450025
 31
0.0
  0
LINE
  5
19b
100
AcDbEntity
  8
Layer_1
 62
7
100
AcDbLine
 10
304.000041
 20
81.450025
 30
0.0
 11
304.000041
 21
84.550010
 31
0.0
  0
LINE
  5
19c
100
AcDbEntity
  8
Layer_1
 62
7
100
AcDbLine
 10
304.000041
 20
84.550010
 30
0.0
 11
304.000041
 21
88.200018
 31
0.0
  0
LINE
  5
19d
100
AcDbEntity
  8
Layer_1
 62
7
100
AcDbLine
 10
304.000041
 20
88.200018
 30
0.0
 11
310.000029
 21
88.200018
 31
0.0
  0
LINE
  5
19e
100
AcDbEntity
  8
Layer_1
 62
7
100
AcDbLine
 10
310.000029
 20
88.200018
 30
0.0
 11
310.000057
 21
98.600048
 31
0.0
  0
LINE
  5
19f
100
AcDbEntity
  8
Layer_1
 62
7
100
AcDbLine
 10
310.000057
 20
98.600048
 30
0.0
 11
310.000057
 21
98.600048
 31
0.0
  0
LINE
  5
1a0
100
AcDbEntity
  8
Layer_1
 62
7
100
AcDbLine
 10
141.450016
 20
62.999987
 30
0.0
 11
135.000024
 21
62.999987
 31
0.0
  0
LINE
  5
1a1
100
AcDbEntity
  8
Layer_1
 62
7
100
AcDbLine
 10
135.000024
 20
62.999987
 30
0.0
 11
135.000024
 21
56.999985
 31
0.0
  0
LINE
  5
1a2
100
AcDbEntity
  8
Layer_1
 62
7
100
AcDbLine
 10
135.000024
 20
56.999985
 30
0.0
 11
125.000016
 21
56.999985
 31
0.0
  0
LINE
  5
1a3
100
AcDbEntity
  8
Layer_1
 62
7
100
AcDbLine
 10
125.000016
 20
56.999985
 30
0.0
 11
125.000016
 21
85.122961
 31
0.0
  0
LINE
  5
1a4
100
AcDbEntity
  8
Layer_1
 62
7
100
AcDbLine
 10
125.000016
 20
85.122961
 30
0.0
 11
119.000000
 21
85.122961
 31
0.0
  0
LINE
  5
1a5
100
AcDbEntity
  8
Layer_1
 62
7
100
AcDbLine
 10
119.000000
 20
85.122961
 30
0.0
 11
119.000000
 21
91.022966
 31
0.0
  0
LINE
  5
1a6
100
AcDbEntity
  8
Layer_1
 62
7
100
AcDbLine
 10
119.000000
 20
91.022966
 30
0.0
 11
122.700018
 21
91.022966
 31
0.0
  0
LINE
  5
1a7
100
AcDbEntity
  8
Layer_1
 62
7
100
AcDbLine
 10
122.700018
 20
91.022966
 30
0.0
 11
122.700018
 21
94.722970
 31
0.0
  0
LINE
  5
1a8
100
AcDbEntity
  8
Layer_1
 62
7
100
AcDbLine
 10
122.700018
 20
94.722970
 30
0.0
 11
119.000000
 21
94.722970
 31
0.0
  0
LINE
  5
1a9
100
AcDbEntity
  8
Layer_1
 62
7
100
AcDbLine
 10
119.000000
 20
94.722970
 30
0.0
 11
119.000000
 21
100.622975
 31
0.0
  0
LINE
  5
1aa
100
AcDbEntity
  8
Layer_1
 62
7
100
AcDbLine
 10
119.000000
 20
100.622975
 30
0.0
 11
125.000016
 21
100.622975
 31
0.0
  0
LINE
  5
1ab
100
AcDbEntity
  8
Layer_1
 62
7
100
AcDbLine
 10
125.000016
 20
100.622975
 30
0.0
 11
125.000016
 21
129.000044
 31
0.0
  0
LINE
  5
1ac
100
AcDbEntity
  8
Layer_1
 62
7
100
AcDbLine
 10
125.000016
 20
129.000044
 30
0.0
 11
135.000024
 21
129.000044
 31
0.0
  0
LINE
  5
1ad
100
AcDbEntity
  8
Layer_1
 62
7
100
AcDbLine
 10
135.000024
 20
129.000044
 30
0.0
 11
135.000024
 21
123.000039
 31
0.0
  0
LINE
  5
1ae
100
AcDbEntity
  8
Layer_1
 62
7
100
AcDbLine
 10
135.000024
 20
123.000039
 30
0.0
 11
141.450016
 21
123.000039
 31
0.0
  0
LINE
  5
1af
100
AcDbEntity
  8
Layer_1
 62
7
100
AcDbLine
 10
141.450016
 20
123.000039
 30
0.0
 11
141.450016
 21
123.000039
 31
0.0
  0
LINE
  5
1b0
100
AcDbEntity
  8
Layer_1
 62
7
100
AcDbLine
 10
141.450016
 20
123.000039
 30
0.0
 11
141.450016
 21
123.000039
 31
0.0
  0
LINE
  5
1b1
100
AcDbEntity
  8
Layer_1
 62
7
100
AcDbLine
 10
141.450016
 20
123.000039
 30
0.0
 11
141.450016
 21
121.900038
 31
0.0
  0
LINE
  5
1b2
100
AcDbEntity
  8
Layer_1
 62
7
100
AcDbLine
 10
141.450016
 20
121.900038
 30
0.0
 11
139.500029
 21
121.900038
 31
0.0
  0
LINE
  5
1b3
100
AcDbEntity
  8
Layer_1
 62
7
100
AcDbLine
 10
139.500029
 20
121.900038
 30
0.0
 11
139.500029
 21
119.400035
 31
0.0
  0
LINE
  5
1b4
100
AcDbEntity
  8
Layer_1
 62
7
100
AcDbLine
 10
139.500029
 20
119.400035
 30
0.0
 11
141.450016
 21
119.400035
 31
0.0
  0
LINE
  5
1b5
100
AcDbEntity
  8
Layer_1
 62
7
100
AcDbLine
 10
141.450016
 20
119.400035
 30
0.0
 11
141.450016
 21
116.900034
 31
0.0
  0
LINE
  5
1b6
100
AcDbEntity
  8
Layer_1
 62
7
100
AcDbLine
 10
141.450016
 20
116.900034
 30
0.0
 11
144.550029
 21
116.900034
 31
0.0
  0
LINE
  5
1b7
100
AcDbEntity
  8
Layer_1
 62
7
100
AcDbLine
 10
144.550029
 20
116.900034
 30
0.0
 11
144.550029
 21
119.400035
 31
0.0
  0
LINE
  5
1b8
100
AcDbEntity
  8
Layer_1
 62
7
100
AcDbLine
 10
144.550029
 20
119.400035
 30
0.0
 11
146.500015
 21
119.400035
 31
0.0
  0
LINE
  5
1b9
100
AcDbEntity
  8
Layer_1
 62
7
100
AcDbLine
 10
146.500015
 20
119.400035
 30
0.0
 11
146.500015
 21
121.900038
 31
0.0
  0
LINE
  5
1ba
100
AcDbEntity
  8
Layer_1
 62
7
100
AcDbLine
 10
146.500015
 20
121.900038
 30
0.0
 11
144.550029
 21
121.900038
 31
0.0
  0
LINE
  5
1bb
100
AcDbEntity
  8
Layer_1
 62
7
100
AcDbLine
 10
144.550029
 20
121.900038
 30
0.0
 11
144.550029
 21
123.000039
 31
0.0
  0
LINE
  5
1bc
100
AcDbEntity
  8
Layer_1
 62
7
100
AcDbLine
 10
144.550029
 20
123.000039
 30
0.0
 11
151.000021
 21
123.000039
 31
0.0
  0
LINE
  5
1bd
100
AcDbEntity
  8
Layer_1
 62
7
100
AcDbLine
 10
151.000021
 20
123.000039
 30
0.0
 11
151.000021
 21
129.000044
 31
0.0
  0
LINE
  5
1be
100
AcDbEntity
  8
Layer_1
 62
7
100
AcDbLine
 10
151.000021
 20
129.000044
 30
0.0
 11
161.000029
 21
129.000044
 31
0.0
  0
LINE
  5
1bf
100
AcDbEntity
  8
Layer_1
 62
7
100
AcDbLine
 10
161.000029
 20
129.000044
 30
0.0
 11
161.000029
 21
123.000039
 31
0.0
  0
LINE
  5
1c0
100
AcDbEntity
  8
Layer_1
 62
7
100
AcDbLine
 10
161.000029
 20
123.000039
 30
0.0
 11
171.000037
 21
123.000039
 31
0.0
  0
LINE
  5
1c1
100
AcDbEntity
  8
Layer_1
 62
7
100
AcDbLine
 10
171.000037
 20
123.000039
 30
0.0
 11
171.000037
 21
129.000044
 31
0.0
  0
LINE
  5
1c2
100
AcDbEntity
  8
Layer_1
 62
7
100
AcDbLine
 10
171.000037
 20
129.000044
 30
0.0
 11
181.000045
 21
129.000044
 31
0.0
  0
LINE
  5
1c3
100
AcDbEntity
  8
Layer_1
 62
7
100
AcDbLine
 10
181.000045
 20
129.000044
 30
0.0
 11
181.000045
 21
123.000039
 31
0.0
  0
LINE
  5
1c4
100
AcDbEntity
  8
Layer_1
 62
7
100
AcDbLine
 10
181.000045
 20
123.000039
 30
0.0
 11
191.000053
 21
123.000039
 31
0.0
  0
LINE
  5
1c5
100
AcDbEntity
  8
Layer_1
 62
7
100
AcDbLine
 10
191.000053
 20
123.000039
 30
0.0
 11
191.000053
 21
129.000044
 31
0.0
  0
LINE
  5
1c6
100
AcDbEntity
  8
Layer_1
 62
7
100
AcDbLine
 10
191.000053
 20
129.000044
 30
0.0
 11
201.000062
 21
129.000044
 31
0.0
  0
LINE
  5
1c7
100
AcDbEntity
  8
Layer_1
 62
7
100
AcDbLine
 10
201.000062
 20
129.000044
 30
0.0
 11
201.000062
 21
123.000039
 31
0.0
  0
LINE
  5
1c8
100
AcDbEntity
  8
Layer_1
 62
7
100
AcDbLine
 10
201.000062
 20
123.000039
 30
0.0
 11
207.450081
 21
123.000039
 31
0.0
  0
LINE
  5
1c9
100
AcDbEntity
  8
Layer_1
 62
7
100
AcDbLine
 10
207.450081
 20
123.000039
 30
0.0
 11
207.450081
 21
121.900038
 31
0.0
  0
LINE
  5
1ca
100
AcDbEntity
  8
Layer_1
 62
7
100
AcDbLine
 10
207.450081
 20
121.900038
 30
0.0
 11
205.500067
 21
121.900038
 31
0.0
  0
LINE
  5
1cb
100
AcDbEntity
  8
Layer_1
 62
7
100
AcDbLine
 10
205.500067
 20
121.900038
 30
0.0
 11
205.500067
 21
119.400035
 31
0.0
  0
LINE
  5
1cc
100
AcDbEntity
  8
Layer_1
 62
7
100
AcDbLine
 10
205.500067
 20
119.400035
 30
0.0
 11
207.450081
 21
119.400035
 31
0.0
  0
LINE
  5
1cd
100
AcDbEntity
  8
Layer_1
 62
7
100
AcDbLine
 10
207.450081
 20
119.400035
 30
0.0
 11
207.450081
 21
116.900034
 31
0.0
  0
LINE
  5
1ce
100
AcDbEntity
  8
Layer_1
 62
7
100
AcDbLine
 10
207.450081
 20
116.900034
 30
0.0
 11
210.550095
 21
116.900034
 31
0.0
  0
LINE
  5
1cf
100
AcDbEntity
  8
Layer_1
 62
7
100
AcDbLine
 10
210.550095
 20
116.900034
 30
0.0
 11
210.550095
 21
119.400035
 31
0.0
  0
LINE
  5
1d0
100
AcDbEntity
  8
Layer_1
 62
7
100
AcDbLine
 10
210.550095
 20
119.400035
 30
0.0
 11
212.500081
 21
119.400035
 31
0.0
  0
LINE
  5
1d1
100
AcDbEntity
  8
Layer_1
 62
7
100
AcDbLine
 10
212.500081
 20
119.400035
 30
0.0
 11
212.500081
 21
121.900038
 31
0.0
  0
LINE
  5
1d2
100
AcDbEntity
  8
Layer_1
 62
7
100
AcDbLine
 10
212.500081
 20
121.900038
 30
0.0
 11
210.550095
 21
121.900038
 31
0.0
  0
LINE
  5
1d3
100
AcDbEntity
  8
Layer_1
 62
7
100
AcDbLine
 10
210.550095
 20
121.900038
 30
0.0
 11
210.550095
 21
123.000039
 31
0.0
  0
LINE
  5
1d4
100
AcDbEntity
  8
Layer_1
 62
7
100
AcDbLine
 10
210.550095
 20
123.000039
 30
0.0
 11
217.000086
 21
123.000039
 31
0.0
  0
LINE
  5
1d5
100
AcDbEntity
  8
Layer_1
 62
7
100
AcDbLine
 10
217.000086
 20
123.000039
 30
0.0
 11
217.000086
 21
129.000044
 31
0.0
  0
LINE
  5
1d6
100
AcDbEntity
  8
Layer_1
 62
7
100
AcDbLine
 10
217.000086
 20
129.000044
 30
0.0
 11
227.000094
 21
129.000044
 31
0.0
  0
LINE
  5
1d7
100
AcDbEntity
  8
Layer_1
 62
7
100
AcDbLine
 10
227.000094
 20
129.000044
 30
0.0
 11
227.000094
 21
100.622975
 31
0.0
  0
LINE
  5
1d8
100
AcDbEntity
  8
Layer_1
 62
7
100
AcDbLine
 10
227.000094
 20
100.622975
 30
0.0
 11
233.000111
 21
100.622975
 31
0.0
  0
LINE
  5
1d9
100
AcDbEntity
  8
Layer_1
 62
7
100
AcDbLine
 10
233.000111
 20
100.622975
 30
0.0
 11
233.000111
 21
94.722970
 31
0.0
  0
LINE
  5
1da
100
AcDbEntity
  8
Layer_1
 62
7
100
AcDbLine
 10
233.000111
 20
94.722970
 30
0.0
 11
229.300093
 21
94.722970
 31
0.0
  0
LINE
  5
1db
100
AcDbEntity
  8
Layer_1
 62
7
100
AcDbLine
 10
229.300093
 20
94.722970
 30
0.0
 11
229.300093
 21
91.022966
 31
0.0
  0
LINE
  5
1dc
100
AcDbEntity
  8
Layer_1
 62
7
100
AcDbLine
 10
229.300093
 20
91.022966
 30
0.0
 11
233.000111
 21
91.022966
 31
0.0
  0
LINE
  5
1dd
100
AcDbEntity
  8
Layer_1
 62
7
100
AcDbLine
 10
233.000111
 20
91.022966
 30
0.0
 11
233.000111
 21
85.122961
 31
0.0
  0
LINE
  5
1de
100
AcDbEntity
  8
Layer_1
 62
7
100
AcDbLine
 10
233.000111
 20
85.122961
 30
0.0
 11
227.000094
 21
85.122961
 31
0.0
  0
LINE
  5
1df
100
AcDbEntity
  8
Layer_1
 62
7
100
AcDbLine
 10
227.000094
 20
85.122961
 30
0.0
 11
227.000094
 21
56.999985
 31
0.0
  0
LINE
  5
1e0
100
AcDbEntity
  8
Layer_1
 62
7
100
AcDbLine
 10
227.000094
 20
56.999985
 30
0.0
 11
217.000086
 21
56.999985
 31
0.0
  0
LINE
  5
1e1
100
AcDbEntity
  8
Layer_1
 62
7
100
AcDbLine
 10
217.000086
 20
56.999985
 30
0.0
 11
217.000086
 21
62.999987
 31
0.0
  0
LINE
  5
1e2
100
AcDbEntity
  8
Layer_1
 62
7
100
AcDbLine
 10
217.000086
 20
62.999987
 30
0.0
 11
210.550095
 21
62.999987
 31
0.0
  0
LINE
  5
1e3
100
AcDbEntity
  8
Layer_1
 62
7
100
AcDbLine
 10
210.550095
 20
62.999987
 30
0.0
 11
210.550095
 21
64.099990
 31
0.0
  0
LINE
  5
1e4
100
AcDbEntity
  8
Layer_1
 62
7
100
AcDbLine
 10
210.550095
 20
64.099990
 30
0.0
 11
212.500081
 21
64.099990
 31
0.0
  0
LINE
  5
1e5
100
AcDbEntity
  8
Layer_1
 62
7
100
AcDbLine
 10
212.500081
 20
64.099990
 30
0.0
 11
212.500081
 21
66.599991
 31
0.0
  0
LINE
  5
1e6
100
AcDbEntity
  8
Layer_1
 62
7
100
AcDbLine
 10
212.500081
 20
66.599991
 30
0.0
 11
210.550095
 21
66.599991
 31
0.0
  0
LINE
  5
1e7
100
AcDbEntity
  8
Layer_1
 62
7
100
AcDbLine
 10
210.550095
 20
66.599991
 30
0.0
 11
210.550095
 21
69.099994
 31
0.0
  0
LINE
  5
1e8
100
AcDbEntity
  8
Layer_1
 62
7
100
AcDbLine
 10
210.550095
 20
69.099994
 30
0.0
 11
207.450081
 21
69.099994
 31
0.0
  0
LINE
  5
1e9
100
AcDbEntity
  8
Layer_1
 62
7
100
AcDbLine
 10
207.450081
 20
69.099994
 30
0.0
 11
207.450081
 21
66.599991
 31
0.0
  0
LINE
  5
1ea
100
AcDbEntity
  8
Layer_1
 62
7
100
AcDbLine
 10
207.450081
 20
66.599991
 30
0.0
 11
205.500067
 21
66.599991
 31
0.0
  0
LINE
  5
1eb
100
AcDbEntity
  8
Layer_1
 62
7
100
AcDbLine
 10
205.500067
 20
66.599991
 30
0.0
 11
205.500067
 21
64.099990
 31
0.0
  0
LINE
  5
1ec
100
AcDbEntity
  8
Layer_1
 62
7
100
AcDbLine
 10
205.500067
 20
64.099990
 30
0.0
 11
207.450081
 21
64.099990
 31
0.0
  0
LINE
  5
1ed
100
AcDbEntity
  8
Layer_1
 62
7
100
AcDbLine
 10
207.450081
 20
64.099990
 30
0.0
 11
207.450081
 21
62.999987
 31
0.0
  0
LINE
  5
1ee
100
AcDbEntity
  8
Layer_1
 62
7
100
AcDbLine
 10
207.450081
 20
62.999987
 30
0.0
 11
201.000062
 21
62.999987
 31
0.0
  0
LINE
  5
1ef
100
AcDbEntity
  8
Layer_1
 62
7
100
AcDbLine
 10
201.000062
 20
62.999987
 30
0.0
 11
201.000062
 21
56.999985
 31
0.0
  0
LINE
  5
1f0
100
AcDbEntity
  8
Layer_1
 62
7
100
AcDbLine
 10
201.000062
 20
56.999985
 30
0.0
 11
191.000053
 21
56.999985
 31
0.0
  0
LINE
  5
1f1
100
AcDbEntity
  8
Layer_1
 62
7
100
AcDbLine
 10
191.000053
 20
56.999985
 30
0.0
 11
191.000053
 21
62.999987
 31
0.0
  0
LINE
  5
1f2
100
AcDbEntity
  8
Layer_1
 62
7
100
AcDbLine
 10
191.000053
 20
62.999987
 30
0.0
 11
181.000045
 21
62.999987
 31
0.0
  0
LINE
  5
1f3
100
AcDbEntity
  8
Layer_1
 62
7
100
AcDbLine
 10
181.000045
 20
62.999987
 30
0.0
 11
181.000045
 21
56.999985
 31
0.0
  0
LINE
  5
1f4
100
AcDbEntity
  8
Layer_1
 62
7
100
AcDbLine
 10
181.000045
 20
56.999985
 30
0.0
 11
171.000037
 21
56.999985
 31
0.0
  0
LINE
  5
1f5
100
AcDbEntity
  8
Layer_1
 62
7
100
AcDbLine
 10
171.000037
 20
56.999985
 30
0.0
 11
171.000037
 21
62.999987
 31
0.0
  0
LINE
  5
1f6
100
AcDbEntity
  8
Layer_1
 62
7
100
AcDbLine
 10
171.000037
 20
62.999987
 30
0.0
 11
161.000029
 21
62.999987
 31
0.0
  0
LINE
  5
1f7
100
AcDbEntity
  8
Layer_1
 62
7
100
AcDbLine
 10
161.000029
 20
62.999987
 30
0.0
 11
161.000029
 21
56.999985
 31
0.0
  0
LINE
  5
1f8
100
AcDbEntity
  8
Layer_1
 62
7
100
AcDbLine
 10
161.000029
 20
56.999985
 30
0.0
 11
151.000021
 21
56.999985
 31
0.0
  0
LINE
  5
1f9
100
AcDbEntity
  8
Layer_1
 62
7
100
AcDbLine
 10
151.000021
 20
56.999985
 30
0.0
 11
151.000021
 21
62.999987
 31
0.0
  0
LINE
  5
1fa
100
AcDbEntity
  8
Layer_1
 62
7
100
AcDbLine
 10
151.000021
 20
62.999987
 30
0.0
 11
144.550029
 21
62.999987
 31
0.0
  0
LINE
  5
1fb
100
AcDbEntity
  8
Layer_1
 62
7
100
AcDbLine
 10
144.550029
 20
62.999987
 30
0.0
 11
144.550029
 21
64.099990
 31
0.0
  0
LINE
  5
1fc
100
AcDbEntity
  8
Layer_1
 62
7
100
AcDbLine
 10
144.550029
 20
64.099990
 30
0.0
 11
146.500015
 21
64.099990
 31
0.0
  0
LINE
  5
1fd
100
AcDbEntity
  8
Layer_1
 62
7
100
AcDbLine
 10
146.500015
 20
64.099990
 30
0.0
 11
146.500015
 21
66.599991
 31
0.0
  0
LINE
  5
1fe
100
AcDbEntity
  8
Layer_1
 62
7
100
AcDbLine
 10
146.500015
 20
66.599991
 30
0.0
 11
144.550029
 21
66.599991
 31
0.0
  0
LINE
  5
1ff
100
AcDbEntity
  8
Layer_1
 62
7
100
AcDbLine
 10
144.550029
 20
66.599991
 30
0.0
 11
144.550029
 21
69.099994
 31
0.0
  0
LINE
  5
200
100
AcDbEntity
  8
Layer_1
 62
7
100
AcDbLine
 10
144.550029
 20
69.099994
 30
0.0
 11
141.450016
 21
69.099994
 31
0.0
  0
LINE
  5
201
100
AcDbEntity
  8
Layer_1
 62
7
100
AcDbLine
 10
141.450016
 20
69.099994
 30
0.0
 11
141.450016
 21
66.599991
 31
0.0
  0
LINE
  5
202
100
AcDbEntity
  8
Layer_1
 62
7
100
AcDbLine
 10
141.450016
 20
66.599991
 30
0.0
 11
139.500029
 21
66.599991
 31
0.0
  0
LINE
  5
203
100
AcDbEntity
  8
Layer_1
 62
7
100
AcDbLine
 10
139.500029
 20
66.599991
 30
0.0
 11
139.500029
 21
64.099990
 31
0.0
  0
LINE
  5
204
100
AcDbEntity
  8
Layer_1
 62
7
100
AcDbLine
 10
139.500029
 20
64.099990
 30
0.0
 11
141.450016
 21
64.099990
 31
0.0
  0
LINE
  5
205
100
AcDbEntity
  8
Layer_1
 62
7
100
AcDbLine
 10
141.450016
 20
64.099990
 30
0.0
 11
141.450016
 21
62.999987
 31
0.0
  0
LINE
  5
206
100
AcDbEntity
  8
Layer_1
 62
7
100
AcDbLine
 10
176.621255
 20
93.121212
 30
0.0
 11
176.621255
 21
90.621211
 31
0.0
  0
LINE
  5
207
100
AcDbEntity
  8
Layer_1
 62
7
100
AcDbLine
 10
176.621255
 20
90.621211
 30
0.0
 11
173.121247
 21
90.621211
 31
0.0
  0
LINE
  5
208
100
AcDbEntity
  8
Layer_1
 62
7
100
AcDbLine
 10
173.121247
 20
90.621211
 30
0.0
 11
173.121247
 21
93.121212
 31
0.0
  0
LINE
  5
209
100
AcDbEntity
  8
Layer_1
 62
7
100
AcDbLine
 10
173.121247
 20
93.121212
 30
0.0
 11
176.621255
 21
93.121212
 31
0.0
  0
LINE
  5
20a
100
AcDbEntity
  8
Layer_1
 62
7
100
AcDbLine
 10
176.621255
 20
93.121212
 30
0.0
 11
176.621255
 21
93.121212
 31
0.0
  0
LINE
  5
20b
100
AcDbEntity
  8
Layer_1
 62
7
100
AcDbLine
 10
272.577077
 20
45.999995
 30
0.0
 11
272.577077
 21
44.899978
 31
0.0
  0
LINE
  5
20c
100
AcDbEntity
  8
Layer_1
 62
7
100
AcDbLine
 10
272.577077
 20
44.899978
 30
0.0
 11
270.627080
 21
44.899978
 31
0.0
  0
LINE
  5
20d
100
AcDbEntity
  8
Layer_1
 62
7
100
AcDbLine
 10
270.627080
 20
44.899978
 30
0.0
 11
270.627080
 21
42.399997
 31
0.0
  0
LINE
  5
20e
100
AcDbEntity
  8
Layer_1
 62
7
100
AcDbLine
 10
270.627080
 20
42.399997
 30
0.0
 11
272.577077
 21
42.399997
 31
0.0
  0
LINE
  5
20f
100
AcDbEntity
  8
Layer_1
 62
7
100
AcDbLine
 10
272.577077
 20
42.399997
 30
0.0
 11
272.577077
 21
39.899988
 31
0.0
  0
LINE
  5
210
100
AcDbEntity
  8
Layer_1
 62
7
100
AcDbLine
 10
272.577077
 20
39.899988
 30
0.0
 11
275.677080
 21
39.899988
 31
0.0
  0
LINE
  5
211
100
AcDbEntity
  8
Layer_1
 62
7
100
AcDbLine
 10
275.677080
 20
39.899988
 30
0.0
 11
275.677080
 21
42.399997
 31
0.0
  0
LINE
  5
212
100
AcDbEntity
  8
Layer_1
 62
7
100
AcDbLine
 10
275.677080
 20
42.399997
 30
0.0
 11
277.627080
 21
42.399997
 31
0.0
  0
LINE
  5
213
100
AcDbEntity
  8
Layer_1
 62
7
100
AcDbLine
 10
277.627080
 20
42.399997
 30
0.0
 11
277.627080
 21
44.899978
 31
0.0
  0
LINE
  5
214
100
AcDbEntity
  8
Layer_1
 62
7
100
AcDbLine
 10
277.627080
 20
44.899978
 30
0.0
 11
275.677080
 21
44.899978
 31
0.0
  0
LINE
  5
215
100
AcDbEntity
  8
Layer_1
 62
7
100
AcDbLine
 10
275.677080
 20
44.899978
 30
0.0
 11
275.677080
 21
45.999995
 31
0.0
  0
LINE
  5
216
100
AcDbEntity
  8
Layer_1
 62
7
100
AcDbLine
 10
275.677080
 20
45.999995
 30
0.0
 11
275.677080
 21
45.999995
 31
0.0
  0
LINE
  5
217
100
AcDbEntity
  8
Layer_1
 62
7
100
AcDbLine
 10
275.677080
 20
45.999995
 30
0.0
 11
275.677080
 21
45.999995
 31
0.0
  0
LINE
  5
218
100
AcDbEntity
  8
Layer_1
 62
7
100
AcDbLine
 10
275.677080
 20
45.999995
 30
0.0
 11
281.877084
 21
45.999995
 31
0.0
  0
LINE
  5
219
100
AcDbEntity
  8
Layer_1
 62
7
100
AcDbLine
 10
281.877084
 20
45.999995
 30
0.0
 11
281.877084
 21
51.999983
 31
0.0
  0
LINE
  5
21a
100
AcDbEntity
  8
Layer_1
 62
7
100
AcDbLine
 10
281.877084
 20
51.999983
 30
0.0
 11
304.000041
 21
51.999983
 31
0.0
  0
LINE
  5
21b
100
AcDbEntity
  8
Layer_1
 62
7
100
AcDbLine
 10
304.000041
 20
51.999983
 30
0.0
 11
304.000041
 21
41.600010
 31
0.0
  0
LINE
  5
21c
100
AcDbEntity
  8
Layer_1
 62
7
100
AcDbLine
 10
304.000041
 20
41.600010
 30
0.0
 11
310.000029
 21
41.600010
 31
0.0
  0
LINE
  5
21d
100
AcDbEntity
  8
Layer_1
 62
7
100
AcDbLine
 10
310.000029
 20
41.600010
 30
0.0
 11
310.000029
 21
31.200008
 31
0.0
  0
LINE
  5
21e
100
AcDbEntity
  8
Layer_1
 62
7
100
AcDbLine
 10
310.000029
 20
31.200008
 30
0.0
 11
304.000041
 21
31.200008
 31
0.0
  0
LINE
  5
21f
100
AcDbEntity
  8
Layer_1
 62
7
100
AcDbLine
 10
304.000041
 20
31.200008
 30
0.0
 11
304.000041
 21
27.550000
 31
0.0
  0
LINE
  5
220
100
AcDbEntity
  8
Layer_1
 62
7
100
AcDbLine
 10
304.000041
 20
27.550000
 30
0.0
 11
304.000041
 21
24.449986
 31
0.0
  0
LINE
  5
221
100
AcDbEntity
  8
Layer_1
 62
7
100
AcDbLine
 10
304.000041
 20
24.449986
 30
0.0
 11
304.000041
 21
20.800006
 31
0.0
  0
LINE
  5
222
100
AcDbEntity
  8
Layer_1
 62
7
100
AcDbLine
 10
304.000041
 20
20.800006
 30
0.0
 11
310.000029
 21
20.800006
 31
0.0
  0
LINE
  5
223
100
AcDbEntity
  8
Layer_1
 62
7
100
AcDbLine
 10
310.000029
 20
20.800006
 30
0.0
 11
310.000029
 21
10.399988
 31
0.0
  0
LINE
  5
224
100
AcDbEntity
  8
Layer_1
 62
7
100
AcDbLine
 10
310.000029
 20
10.399988
 30
0.0
 11
304.000041
 21
10.399988
 31
0.0
  0
LINE
  5
225
100
AcDbEntity
  8
Layer_1
 62
7
100
AcDbLine
 10
304.000041
 20
10.399988
 30
0.0
 11
304.000041
 21
-0.000014
 31
0.0
  0
LINE
  5
226
100
AcDbEntity
  8
Layer_1
 62
7
100
AcDbLine
 10
304.000041
 20
-0.000014
 30
0.0
 11
281.877084
 21
-0.000014
 31
0.0
  0
LINE
  5
227
100
AcDbEntity
  8
Layer_1
 62
7
100
AcDbLine
 10
281.877084
 20
-0.000014
 30
0.0
 11
281.877084
 21
6.000002
 31
0.0
  0
LINE
  5
228
100
AcDbEntity
  8
Layer_1
 62
7
100
AcDbLine
 10
281.877084
 20
6.000002
 30
0.0
 11
275.677080
 21
6.000002
 31
0.0
  0
LINE
  5
229
100
AcDbEntity
  8
Layer_1
 62
7
100
AcDbLine
 10
275.677080
 20
6.000002
 30
0.0
 11
275.677080
 21
6.000002
 31
0.0
  0
LINE
  5
22a
100
AcDbEntity
  8
Layer_1
 62
7
100
AcDbLine
 10
275.677080
 20
6.000002
 30
0.0
 11
275.677080
 21
6.000002
 31
0.0
  0
LINE
  5
22b
100
AcDbEntity
  8
Layer_1
 62
7
100
AcDbLine
 10
275.677080
 20
6.000002
 30
0.0
 11
275.677080
 21
7.099991
 31
0.0
  0
LINE
  5
22c
100
AcDbEntity
  8
Layer_1
 62
7
100
AcDbLine
 10
275.677080
 20
7.099991
 30
0.0
 11
277.627080
 21
7.099991
 31
0.0
  0
LINE
  5
22d
100
AcDbEntity
  8
Layer_1
 62
7
100
AcDbLine
 10
277.627080
 20
7.099991
 30
0.0
 11
277.627080
 21
9.600001
 31
0.0
  0
LINE
  5
22e
100
AcDbEntity
  8
Layer_1
 62
7
100
AcDbLine
 10
277.627080
 20
9.600001
 30
0.0
 11
275.677080
 21
9.600001
 31
0.0
  0
LINE
  5
22f
100
AcDbEntity
  8
Layer_1
 62
7
100
AcDbLine
 10
275.677080
 20
9.600001
 30
0.0
 11
275.677080
 21
12.100010
 31
0.0
  0
LINE
  5
230
100
AcDbEntity
  8
Layer_1
 62
7
100
AcDbLine
 10
275.677080
 20
12.100010
 30
0.0
 11
272.577077
 21
12.100010
 31
0.0
  0
LINE
  5
231
100
AcDbEntity
  8
Layer_1
 62
7
100
AcDbLine
 10
272.577077
 20
12.100010
 30
0.0
 11
272.577077
 21
9.600001
 31
0.0
  0
LINE
  5
232
100
AcDbEntity
  8
Layer_1
 62
7
100
AcDbLine
 10
272.577077
 20
9.600001
 30
0.0
 11
270.627080
 21
9.600001
 31
0.0
  0
LINE
  5
233
100
AcDbEntity
  8
Layer_1
 62
7
100
AcDbLine
 10
270.627080
 20
9.600001
 30
0.0
 11
270.627080
 21
7.099991
 31
0.0
  0
LINE
  5
234
100
AcDbEntity
  8
Layer_1
 62
7
100
AcDbLine
 10
270.627080
 20
7.099991
 30
0.0
 11
272.577077
 21
7.099991
 31
0.0
  0
LINE
  5
235
100
AcDbEntity
  8
Layer_1
 62
7
100
AcDbLine
 10
272.577077
 20
7.099991
 30
0.0
 11
272.577077
 21
6.000002
 31
0.0
  0
LINE
  5
236
100
AcDbEntity
  8
Layer_1
 62
7
100
AcDbLine
 10
272.577077
 20
6.000002
 30
0.0
 11
272.577077
 21
6.000002
 31
0.0
  0
LINE
  5
237
100
AcDbEntity
  8
Layer_1
 62
7
100
AcDbLine
 10
272.577077
 20
6.000002
 30
0.0
 11
272.577077
 21
6.000002
 31
0.0
  0
LINE
  5
238
100
AcDbEntity
  8
Layer_1
 62
7
100
AcDbLine
 10
272.577077
 20
6.000002
 30
0.0
 11
266.377073
 21
6.000002
 31
0.0
  0
LINE
  5
239
100
AcDbEntity
  8
Layer_1
 62
7
100
AcDbLine
 10
266.377073
 20
6.000002
 30
0.0
 11
266.377073
 21
-0.000014
 31
0.0
  0
LINE
  5
23a
100
AcDbEntity
  8
Layer_1
 62
7
100
AcDbLine
 10
266.377073
 20
-0.000014
 30
0.0
 11
244.000006
 21
-0.000014
 31
0.0
  0
LINE
  5
23b
100
AcDbEntity
  8
Layer_1
 62
7
100
AcDbLine
 10
244.000006
 20
-0.000014
 30
0.0
 11
244.000006
 21
10.399988
 31
0.0
  0
LINE
  5
23c
100
AcDbEntity
  8
Layer_1
 62
7
100
AcDbLine
 10
244.000006
 20
10.399988
 30
0.0
 11
238.000001
 21
10.399988
 31
0.0
  0
LINE
  5
23d
100
AcDbEntity
  8
Layer_1
 62
7
100
AcDbLine
 10
238.000001
 20
10.399988
 30
0.0
 11
238.000001
 21
20.800006
 31
0.0
  0
LINE
  5
23e
100
AcDbEntity
  8
Layer_1
 62
7
100
AcDbLine
 10
238.000001
 20
20.800006
 30
0.0
 11
244.000006
 21
20.800006
 31
0.0
  0
LINE
  5
23f
100
AcDbEntity
  8
Layer_1
 62
7
100
AcDbLine
 10
244.000006
 20
20.800006
 30
0.0
 11
244.000006
 21
24.449986
 31
0.0
  0
LINE
  5
240
100
AcDbEntity
  8
Layer_1
 62
7
100
AcDbLine
 10
244.000006
 20
24.449986
 30
0.0
 11
244.000006
 21
27.550000
 31
0.0
  0
LINE
  5
241
100
AcDbEntity
  8
Layer_1
 62
7
100
AcDbLine
 10
244.000006
 20
27.550000
 30
0.0
 11
244.000006
 21
31.200008
 31
0.0
  0
LINE
  5
242
100
AcDbEntity
  8
Layer_1
 62
7
100
AcDbLine
 10
244.000006
 20
31.200008
 30
0.0
 11
238.000001
 21
31.200008
 31
0.0
  0
LINE
  5
243
100
AcDbEntity
  8
Layer_1
 62
7
100
AcDbLine
 10
238.000001
 20
31.200008
 30
0.0
 11
238.000063
 21
41.600010
 31
0.0
  0
LINE
  5
244
100
AcDbEntity
  8
Layer_1
 62
7
100
AcDbLine
 10
238.000063
 20
41.600010
 30
0.0
 11
244.000006
 21
41.600010
 31
0.0
  0
LINE
  5
245
100
AcDbEntity
  8
Layer_1
 62
7
100
AcDbLine
 10
244.000006
 20
41.600010
 30
0.0
 11
244.000006
 21
51.999983
 31
0.0
  0
LINE
  5
246
100
AcDbEntity
  8
Layer_1
 62
7
100
AcDbLine
 10
244.000006
 20
51.999983
 30
0.0
 11
266.377073
 21
51.999983
 31
0.0
  0
LINE
  5
247
100
AcDbEntity
  8
Layer_1
 62
7
100
AcDbLine
 10
266.377073
 20
51.999983
 30
0.0
 11
266.377073
 21
45.999995
 31
0.0
  0
LINE
  5
248
100
AcDbEntity
  8
Layer_1
 62
7
100
AcDbLine
 10
266.377073
 20
45.999995
 30
0.0
 11
272.577077
 21
45.999995
 31
0.0
  0
LINE
  5
249
100
AcDbEntity
  8
Layer_1
 62
7
100
AcDbLine
 10
272.577077
 20
45.999995
 30
0.0
 11
272.577077
 21
45.999995
 31
0.0
  0
LINE
  5
24a
100
AcDbEntity
  8
Layer_1
 62
7
100
AcDbLine
 10
272.577077
 20
45.999995
 30
0.0
 11
272.577077
 21
45.999995
 31
0.0
  0
LINE
  5
24b
100
AcDbEntity
  8
Layer_1
 62
7
100
AcDbLine
 10
272.577077
 20
45.999995
 30
0.0
 11
272.577077
 21
45.999995
 31
0.0
  0
LINE
  5
24c
100
AcDbEntity
  8
Layer_1
 62
7
100
AcDbLine
 10
16.000024
 20
46.000024
 30
0.0
 11
16.000024
 21
52.000029
 31
0.0
  0
LINE
  5
24d
100
AcDbEntity
  8
Layer_1
 62
7
100
AcDbLine
 10
16.000024
 20
52.000029
 30
0.0
 11
22.150014
 21
52.000029
 31
0.0
  0
LINE
  5
24e
100
AcDbEntity
  8
Layer_1
 62
7
100
AcDbLine
 10
22.150014
 20
52.000029
 30
0.0
 11
22.150014
 21
48.300025
 31
0.0
  0
LINE
  5
24f
100
AcDbEntity
  8
Layer_1
 62
7
100
AcDbLine
 10
22.150014
 20
48.300025
 30
0.0
 11
25.850032
 21
48.300025
 31
0.0
  0
LINE
  5
250
100
AcDbEntity
  8
Layer_1
 62
7
100
AcDbLine
 10
25.850032
 20
48.300025
 30
0.0
 11
25.850032
 21
52.000029
 31
0.0
  0
LINE
  5
251
100
AcDbEntity
  8
Layer_1
 62
7
100
AcDbLine
 10
25.850032
 20
52.000029
 30
0.0
 11
32.000021
 21
52.000029
 31
0.0
  0
LINE
  5
252
100
AcDbEntity
  8
Layer_1
 62
7
100
AcDbLine
 10
32.000021
 20
52.000029
 30
0.0
 11
32.000021
 21
46.000024
 31
0.0
  0
LINE
  5
253
100
AcDbEntity
  8
Layer_1
 62
7
100
AcDbLine
 10
32.000021
 20
46.000024
 30
0.0
 11
42.000029
 21
46.000024
 31
0.0
  0
LINE
  5
254
100
AcDbEntity
  8
Layer_1
 62
7
100
AcDbLine
 10
42.000029
 20
46.000024
 30
0.0
 11
42.000029
 21
52.000029
 31
0.0
  0
LINE
  5
255
100
AcDbEntity
  8
Layer_1
 62
7
100
AcDbLine
 10
42.000029
 20
52.000029
 30
0.0
 11
52.000037
 21
52.000029
 31
0.0
  0
LINE
  5
256
100
AcDbEntity
  8
Layer_1
 62
7
100
AcDbLine
 10
52.000037
 20
52.000029
 30
0.0
 11
52.000037
 21
46.000024
 31
0.0
  0
LINE
  5
257
100
AcDbEntity
  8
Layer_1
 62
7
100
AcDbLine
 10
52.000037
 20
46.000024
 30
0.0
 11
62.000045
 21
46.000024
 31
0.0
  0
LINE
  5
258
100
AcDbEntity
  8
Layer_1
 62
7
100
AcDbLine
 10
62.000045
 20
46.000024
 30
0.0
 11
62.000045
 21
52.000029
 31
0.0
  0
LINE
  5
259
100
AcDbEntity
  8
Layer_1
 62
7
100
AcDbLine
 10
62.000045
 20
52.000029
 30
0.0
 11
72.000054
 21
52.000029
 31
0.0
  0
LINE
  5
25a
100
AcDbEntity
  8
Layer_1
 62
7
100
AcDbLine
 10
72.000054
 20
52.000029
 30
0.0
 11
72.000054
 21
46.000024
 31
0.0
  0
LINE
  5
25b
100
AcDbEntity
  8
Layer_1
 62
7
100
AcDbLine
 10
72.000054
 20
46.000024
 30
0.0
 11
82.000062
 21
46.000024
 31
0.0
  0
LINE
  5
25c
100
AcDbEntity
  8
Layer_1
 62
7
100
AcDbLine
 10
82.000062
 20
46.000024
 30
0.0
 11
82.000062
 21
52.000029
 31
0.0
  0
LINE
  5
25d
100
AcDbEntity
  8
Layer_1
 62
7
100
AcDbLine
 10
82.000062
 20
52.000029
 30
0.0
 11
88.150079
 21
52.000029
 31
0.0
  0
LINE
  5
25e
100
AcDbEntity
  8
Layer_1
 62
7
100
AcDbLine
 10
88.150079
 20
52.000029
 30
0.0
 11
88.150079
 21
48.300025
 31
0.0
  0
LINE
  5
25f
100
AcDbEntity
  8
Layer_1
 62
7
100
AcDbLine
 10
88.150079
 20
48.300025
 30
0.0
 11
91.850069
 21
48.300025
 31
0.0
  0
LINE
  5
260
100
AcDbEntity
  8
Layer_1
 62
7
100
AcDbLine
 10
91.850069
 20
48.300025
 30
0.0
 11
91.850069
 21
52.000029
 31
0.0
  0
LINE
  5
261
100
AcDbEntity
  8
Layer_1
 62
7
100
AcDbLine
 10
91.850069
 20
52.000029
 30
0.0
 11
98.000086
 21
52.000029
 31
0.0
  0
LINE
  5
262
100
AcDbEntity
  8
Layer_1
 62
7
100
AcDbLine
 10
98.000086
 20
52.000029
 30
0.0
 11
98.000086
 21
46.000024
 31
0.0
  0
LINE
  5
263
100
AcDbEntity
  8
Layer_1
 62
7
100
AcDbLine
 10
98.000086
 20
46.000024
 30
0.0
 11
114.000111
 21
46.000024
 31
0.0
  0
LINE
  5
264
100
AcDbEntity
  8
Layer_1
 62
7
100
AcDbLine
 10
114.000111
 20
46.000024
 30
0.0
 11
114.000111
 21
41.600018
 31
0.0
  0
LINE
  5
265
100
AcDbEntity
  8
Layer_1
 62
7
100
AcDbLine
 10
114.000111
 20
41.600018
 30
0.0
 11
108.000094
 21
41.600018
 31
0.0
  0
LINE
  5
266
100
AcDbEntity
  8
Layer_1
 62
7
100
AcDbLine
 10
108.000094
 20
41.600018
 30
0.0
 11
108.000094
 21
31.200011
 31
0.0
  0
LINE
  5
267
100
AcDbEntity
  8
Layer_1
 62
7
100
AcDbLine
 10
108.000094
 20
31.200011
 30
0.0
 11
114.000111
 21
31.200011
 31
0.0
  0
LINE
  5
268
100
AcDbEntity
  8
Layer_1
 62
7
100
AcDbLine
 10
114.000111
 20
31.200011
 30
0.0
 11
114.000111
 21
27.850008
 31
0.0
  0
LINE
  5
269
100
AcDbEntity
  8
Layer_1
 62
7
100
AcDbLine
 10
114.000111
 20
27.850008
 30
0.0
 11
114.000111
 21
24.150004
 31
0.0
  0
LINE
  5
26a
100
AcDbEntity
  8
Layer_1
 62
7
100
AcDbLine
 10
114.000111
 20
24.150004
 30
0.0
 11
114.000111
 21
20.800001
 31
0.0
  0
LINE
  5
26b
100
AcDbEntity
  8
Layer_1
 62
7
100
AcDbLine
 10
114.000111
 20
20.800001
 30
0.0
 11
108.000094
 21
20.800001
 31
0.0
  0
LINE
  5
26c
100
AcDbEntity
  8
Layer_1
 62
7
100
AcDbLine
 10
108.000094
 20
20.800001
 30
0.0
 11
108.000094
 21
10.399988
 31
0.0
  0
LINE
  5
26d
100
AcDbEntity
  8
Layer_1
 62
7
100
AcDbLine
 10
108.000094
 20
10.399988
 30
0.0
 11
114.000111
 21
10.399988
 31
0.0
  0
LINE
  5
26e
100
AcDbEntity
  8
Layer_1
 62
7
100
AcDbLine
 10
114.000111
 20
10.399988
 30
0.0
 11
114.000111
 21
6.000002
 31
0.0
  0
LINE
  5
26f
100
AcDbEntity
  8
Layer_1
 62
7
100
AcDbLine
 10
114.000111
 20
6.000002
 30
0.0
 11
98.000086
 21
6.000002
 31
0.0
  0
LINE
  5
270
100
AcDbEntity
  8
Layer_1
 62
7
100
AcDbLine
 10
98.000086
 20
6.000002
 30
0.0
 11
98.000086
 21
-0.000014
 31
0.0
  0
LINE
  5
271
100
AcDbEntity
  8
Layer_1
 62
7
100
AcDbLine
 10
98.000086
 20
-0.000014
 30
0.0
 11
91.850069
 21
-0.000014
 31
0.0
  0
LINE
  5
272
100
AcDbEntity
  8
Layer_1
 62
7
100
AcDbLine
 10
91.850069
 20
-0.000014
 30
0.0
 11
91.850069
 21
3.699976
 31
0.0
  0
LINE
  5
273
100
AcDbEntity
  8
Layer_1
 62
7
100
AcDbLine
 10
91.850069
 20
3.699976
 30
0.0
 11
88.150079
 21
3.699976
 31
0.0
  0
LINE
  5
274
100
AcDbEntity
  8
Layer_1
 62
7
100
AcDbLine
 10
88.150079
 20
3.699976
 30
0.0
 11
88.150079
 21
-0.000014
 31
0.0
  0
LINE
  5
275
100
AcDbEntity
  8
Layer_1
 62
7
100
AcDbLine
 10
88.150079
 20
-0.000014
 30
0.0
 11
82.000062
 21
-0.000014
 31
0.0
  0
LINE
  5
276
100
AcDbEntity
  8
Layer_1
 62
7
100
AcDbLine
 10
82.000062
 20
-0.000014
 30
0.0
 11
82.000062
 21
6.000002
 31
0.0
  0
LINE
  5
277
100
AcDbEntity
  8
Layer_1
 62
7
100
AcDbLine
 10
82.000062
 20
6.000002
 30
0.0
 11
72.000054
 21
6.000002
 31
0.0
  0
LINE
  5
278
100
AcDbEntity
  8
Layer_1
 62
7
100
AcDbLine
 10
72.000054
 20
6.000002
 30
0.0
 11
72.000054
 21
-0.000014
 31
0.0
  0
LINE
  5
279
100
AcDbEntity
  8
Layer_1
 62
7
100
AcDbLine
 10
72.000054
 20
-0.000014
 30
0.0
 11
62.000045
 21
-0.000014
 31
0.0
  0
LINE
  5
27a
100
AcDbEntity
  8
Layer_1
 62
7
100
AcDbLine
 10
62.000045
 20
-0.000014
 30
0.0
 11
62.000045
 21
6.000002
 31
0.0
  0
LINE
  5
27b
100
AcDbEntity
  8
Layer_1
 62
7
100
AcDbLine
 10
62.000045
 20
6.000002
 30
0.0
 11
52.000037
 21
6.000002
 31
0.0
  0
LINE
  5
27c
100
AcDbEntity
  8
Layer_1
 62
7
100
AcDbLine
 10
52.000037
 20
6.000002
 30
0.0
 11
52.000037
 21
-0.000014
 31
0.0
  0
LINE
  5
27d
100
AcDbEntity
  8
Layer_1
 62
7
100
AcDbLine
 10
52.000037
 20
-0.000014
 30
0.0
 11
42.000029
 21
-0.000014
 31
0.0
  0
LINE
  5
27e
100
AcDbEntity
  8
Layer_1
 62
7
100
AcDbLine
 10
42.000029
 20
-0.000014
 30
0.0
 11
42.000029
 21
6.000002
 31
0.0
  0
LINE
  5
27f
100
AcDbEntity
  8
Layer_1
 62
7
100
AcDbLine
 10
42.000029
 20
6.000002
 30
0.0
 11
32.000021
 21
6.000002
 31
0.0
  0
LINE
  5
280
100
AcDbEntity
  8
Layer_1
 62
7
100
AcDbLine
 10
32.000021
 20
6.000002
 30
0.0
 11
32.000021
 21
-0.000014
 31
0.0
  0
LINE
  5
281
100
AcDbEntity
  8
Layer_1
 62
7
100
AcDbLine
 10
32.000021
 20
-0.000014
 30
0.0
 11
25.850032
 21
-0.000014
 31
0.0
  0
LINE
  5
282
100
AcDbEntity
  8
Layer_1
 62
7
100
AcDbLine
 10
25.850032
 20
-0.000014
 30
0.0
 11
25.850032
 21
3.699976
 31
0.0
  0
LINE
  5
283
100
AcDbEntity
  8
Layer_1
 62
7
100
AcDbLine
 10
25.850032
 20
3.699976
 30
0.0
 11
22.150014
 21
3.699976
 31
0.0
  0
LINE
  5
284
100
AcDbEntity
  8
Layer_1
 62
7
100
AcDbLine
 10
22.150014
 20
3.699976
 30
0.0
 11
22.150014
 21
-0.000014
 31
0.0
  0
LINE
  5
285
100
AcDbEntity
  8
Layer_1
 62
7
100
AcDbLine
 10
22.150014
 20
-0.000014
 30
0.0
 11
16.000024
 21
-0.000014
 31
0.0
  0
LINE
  5
286
100
AcDbEntity
  8
Layer_1
 62
7
100
AcDbLine
 10
16.000024
 20
-0.000014
 30
0.0
 11
16.000024
 21
6.000002
 31
0.0
  0
LINE
  5
287
100
AcDbEntity
  8
Layer_1
 62
7
100
AcDbLine
 10
16.000024
 20
6.000002
 30
0.0
 11
0.000000
 21
6.000002
 31
0.0
  0
LINE
  5
288
100
AcDbEntity
  8
Layer_1
 62
7
100
AcDbLine
 10
0.000000
 20
6.000002
 30
0.0
 11
0.000000
 21
10.399988
 31
0.0
  0
LINE
  5
289
100
AcDbEntity
  8
Layer_1
 62
7
100
AcDbLine
 10
0.000000
 20
10.399988
 30
0.0
 11
6.000016
 21
10.399988
 31
0.0
  0
LINE
  5
28a
100
AcDbEntity
  8
Layer_1
 62
7
100
AcDbLine
 10
6.000016
 20
10.399988
 30
0.0
 11
6.000016
 21
20.800001
 31
0.0
  0
LINE
  5
28b
100
AcDbEntity
  8
Layer_1
 62
7
100
AcDbLine
 10
6.000016
 20
20.800001
 30
0.0
 11
0.000000
 21
20.800001
 31
0.0
  0
LINE
  5
28c
100
AcDbEntity
  8
Layer_1
 62
7
100
AcDbLine
 10
0.000000
 20
20.800001
 30
0.0
 11
0.000000
 21
24.150004
 31
0.0
  0
LINE
  5
28d
100
AcDbEntity
  8
Layer_1
 62
7
100
AcDbLine
 10
0.000000
 20
24.150004
 30
0.0
 11
0.000000
 21
27.850008
 31
0.0
  0
LINE
  5
28e
100
AcDbEntity
  8
Layer_1
 62
7
100
AcDbLine
 10
0.000000
 20
27.850008
 30
0.0
 11
0.000000
 21
31.200011
 31
0.0
  0
LINE
  5
28f
100
AcDbEntity
  8
Layer_1
 62
7
100
AcDbLine
 10
0.000000
 20
31.200011
 30
0.0
 11
6.000016
 21
31.200011
 31
0.0
  0
LINE
  5
290
100
AcDbEntity
  8
Layer_1
 62
7
100
AcDbLine
 10
6.000016
 20
31.200011
 30
0.0
 11
6.000016
 21
41.600018
 31
0.0
  0
LINE
  5
291
100
AcDbEntity
  8
Layer_1
 62
7
100
AcDbLine
 10
6.000016
 20
41.600018
 30
0.0
 11
0.000000
 21
41.600018
 31
0.0
  0
LINE
  5
292
100
AcDbEntity
  8
Layer_1
 62
7
100
AcDbLine
 10
0.000000
 20
41.600018
 30
0.0
 11
0.000000
 21
46.000024
 31
0.0
  0
LINE
  5
293
100
AcDbEntity
  8
Layer_1
 62
7
100
AcDbLine
 10
0.000000
 20
46.000024
 30
0.0
 11
16.000024
 21
46.000024
 31
0.0
  0
LINE
  5
294
100
AcDbEntity
  8
Layer_1
 62
7
100
AcDbLine
 10
16.000024
 20
46.000024
 30
0.0
 11
16.000024
 21
46.000024
 31
0.0
  0
LINE
  5
295
100
AcDbEntity
  8
Layer_1
 62
7
100
AcDbLine
 10
135.000024
 20
46.000024
 30
0.0
 11
135.000024
 21
52.000029
 31
0.0
  0
LINE
  5
296
100
AcDbEntity
  8
Layer_1
 62
7
100
AcDbLine
 10
135.000024
 20
52.000029
 30
0.0
 11
141.150013
 21
52.000029
 31
0.0
  0
LINE
  5
297
100
AcDbEntity
  8
Layer_1
 62
7
100
AcDbLine
 10
141.150013
 20
52.000029
 30
0.0
 11
141.150013
 21
48.300025
 31
0.0
  0
LINE
  5
298
100
AcDbEntity
  8
Layer_1
 62
7
100
AcDbLine
 10
141.150013
 20
48.300025
 30
0.0
 11
144.850031
 21
48.300025
 31
0.0
  0
LINE
  5
299
100
AcDbEntity
  8
Layer_1
 62
7
100
AcDbLine
 10
144.850031
 20
48.300025
 30
0.0
 11
144.850031
 21
52.000029
 31
0.0
  0
LINE
  5
29a
100
AcDbEntity
  8
Layer_1
 62
7
100
AcDbLine
 10
144.850031
 20
52.000029
 30
0.0
 11
151.000021
 21
52.000029
 31
0.0
  0
LINE
  5
29b
100
AcDbEntity
  8
Layer_1
 62
7
100
AcDbLine
 10
151.000021
 20
52.000029
 30
0.0
 11
151.000021
 21
46.000024
 31
0.0
  0
LINE
  5
29c
100
AcDbEntity
  8
Layer_1
 62
7
100
AcDbLine
 10
151.000021
 20
46.000024
 30
0.0
 11
161.000029
 21
46.000024
 31
0.0
  0
LINE
  5
29d
100
AcDbEntity
  8
Layer_1
 62
7
100
AcDbLine
 10
161.000029
 20
46.000024
 30
0.0
 11
161.000029
 21
52.000029
 31
0.0
  0
LINE
  5
29e
100
AcDbEntity
  8
Layer_1
 62
7
100
AcDbLine
 10
161.000029
 20
52.000029
 30
0.0
 11
171.000037
 21
52.000029
 31
0.0
  0
LINE
  5
29f
100
AcDbEntity
  8
Layer_1
 62
7
100
AcDbLine
 10
171.000037
 20
52.000029
 30
0.0
 11
171.000037
 21
46.000024
 31
0.0
  0
LINE
  5
2a0
100
AcDbEntity
  8
Layer_1
 62
7
100
AcDbLine
 10
171.000037
 20
46.000024
 30
0.0
 11
181.000045
 21
46.000024
 31
0.0
  0
LINE
  5
2a1
100
AcDbEntity
  8
Layer_1
 62
7
100
AcDbLine
 10
181.000045
 20
46.000024
 30
0.0
 11
181.000045
 21
52.000029
 31
0.0
  0
LINE
  5
2a2
100
AcDbEntity
  8
Layer_1
 62
7
100
AcDbLine
 10
181.000045
 20
52.000029
 30
0.0
 11
191.000053
 21
52.000029
 31
0.0
  0
LINE
  5
2a3
100
AcDbEntity
  8
Layer_1
 62
7
100
AcDbLine
 10
191.000053
 20
52.000029
 30
0.0
 11
191.000053
 21
46.000024
 31
0.0
  0
LINE
  5
2a4
100
AcDbEntity
  8
Layer_1
 62
7
100
AcDbLine
 10
191.000053
 20
46.000024
 30
0.0
 11
201.000062
 21
46.000024
 31
0.0
  0
LINE
  5
2a5
100
AcDbEntity
  8
Layer_1
 62
7
100
AcDbLine
 10
201.000062
 20
46.000024
 30
0.0
 11
201.000062
 21
52.000029
 31
0.0
  0
LINE
  5
2a6
100
AcDbEntity
  8
Layer_1
 62
7
100
AcDbLine
 10
201.000062
 20
52.000029
 30
0.0
 11
207.150079
 21
52.000029
 31
0.0
  0
LINE
  5
2a7
100
AcDbEntity
  8
Layer_1
 62
7
100
AcDbLine
 10
207.150079
 20
52.000029
 30
0.0
 11
207.150079
 21
48.300025
 31
0.0
  0
LINE
  5
2a8
100
AcDbEntity
  8
Layer_1
 62
7
100
AcDbLine
 10
207.150079
 20
48.300025
 30
0.0
 11
210.850069
 21
48.300025
 31
0.0
  0
LINE
  5
2a9
100
AcDbEntity
  8
Layer_1
 62
7
100
AcDbLine
 10
210.850069
 20
48.300025
 30
0.0
 11
210.850069
 21
52.000029
 31
0.0
  0
LINE
  5
2aa
100
AcDbEntity
  8
Layer_1
 62
7
100
AcDbLine
 10
210.850069
 20
52.000029
 30
0.0
 11
217.000086
 21
52.000029
 31
0.0
  0
LINE
  5
2ab
100
AcDbEntity
  8
Layer_1
 62
7
100
AcDbLine
 10
217.000086
 20
52.000029
 30
0.0
 11
217.000086
 21
46.000024
 31
0.0
  0
LINE
  5
2ac
100
AcDbEntity
  8
Layer_1
 62
7
100
AcDbLine
 10
217.000086
 20
46.000024
 30
0.0
 11
233.000111
 21
46.000024
 31
0.0
  0
LINE
  5
2ad
100
AcDbEntity
  8
Layer_1
 62
7
100
AcDbLine
 10
233.000111
 20
46.000024
 30
0.0
 11
233.000111
 21
41.600018
 31
0.0
  0
LINE
  5
2ae
100
AcDbEntity
  8
Layer_1
 62
7
100
AcDbLine
 10
233.000111
 20
41.600018
 30
0.0
 11
227.000094
 21
41.600018
 31
0.0
  0
LINE
  5
2af
100
AcDbEntity
  8
Layer_1
 62
7
100
AcDbLine
 10
227.000094
 20
41.600018
 30
0.0
 11
227.000094
 21
31.200011
 31
0.0
  0
LINE
  5
2b0
100
AcDbEntity
  8
Layer_1
 62
7
100
AcDbLine
 10
227.000094
 20
31.200011
 30
0.0
 11
233.000111
 21
31.200011
 31
0.0
  0
LINE
  5
2b1
100
AcDbEntity
  8
Layer_1
 62
7
100
AcDbLine
 10
233.000111
 20
31.200011
 30
0.0
 11
233.000111
 21
27.850008
 31
0.0
  0
LINE
  5
2b2
100
AcDbEntity
  8
Layer_1
 62
7
100
AcDbLine
 10
233.000111
 20
27.850008
 30
0.0
 11
233.000111
 21
24.150004
 31
0.0
  0
LINE
  5
2b3
100
AcDbEntity
  8
Layer_1
 62
7
100
AcDbLine
 10
233.000111
 20
24.150004
 30
0.0
 11
233.000111
 21
20.800001
 31
0.0
  0
LINE
  5
2b4
100
AcDbEntity
  8
Layer_1
 62
7
100
AcDbLine
 10
233.000111
 20
20.800001
 30
0.0
 11
227.000094
 21
20.800001
 31
0.0
  0
LINE
  5
2b5
100
AcDbEntity
  8
Layer_1
 62
7
100
AcDbLine
 10
227.000094
 20
20.800001
 30
0.0
 11
227.000094
 21
10.399990
 31
0.0
  0
LINE
  5
2b6
100
AcDbEntity
  8
Layer_1
 62
7
100
AcDbLine
 10
227.000094
 20
10.399990
 30
0.0
 11
233.000111
 21
10.399990
 31
0.0
  0
LINE
  5
2b7
100
AcDbEntity
  8
Layer_1
 62
7
100
AcDbLine
 10
233.000111
 20
10.399990
 30
0.0
 11
233.000111
 21
5.999991
 31
0.0
  0
LINE
  5
2b8
100
AcDbEntity
  8
Layer_1
 62
7
100
AcDbLine
 10
233.000111
 20
5.999991
 30
0.0
 11
217.000086
 21
5.999991
 31
0.0
  0
LINE
  5
2b9
100
AcDbEntity
  8
Layer_1
 62
7
100
AcDbLine
 10
217.000086
 20
5.999991
 30
0.0
 11
217.000086
 21
-0.000014
 31
0.0
  0
LINE
  5
2ba
100
AcDbEntity
  8
Layer_1
 62
7
100
AcDbLine
 10
217.000086
 20
-0.000014
 30
0.0
 11
210.850069
 21
-0.000014
 31
0.0
  0
LINE
  5
2bb
100
AcDbEntity
  8
Layer_1
 62
7
100
AcDbLine
 10
210.850069
 20
-0.000014
 30
0.0
 11
210.850069
 21
3.699990
 31
0.0
  0
LINE
  5
2bc
100
AcDbEntity
  8
Layer_1
 62
7
100
AcDbLine
 10
210.850069
 20
3.699990
 30
0.0
 11
207.150079
 21
3.699990
 31
0.0
  0
LINE
  5
2bd
100
AcDbEntity
  8
Layer_1
 62
7
100
AcDbLine
 10
207.150079
 20
3.699990
 30
0.0
 11
207.150079
 21
-0.000014
 31
0.0
  0
LINE
  5
2be
100
AcDbEntity
  8
Layer_1
 62
7
100
AcDbLine
 10
207.150079
 20
-0.000014
 30
0.0
 11
201.000062
 21
-0.000014
 31
0.0
  0
LINE
  5
2bf
100
AcDbEntity
  8
Layer_1
 62
7
100
AcDbLine
 10
201.000062
 20
-0.000014
 30
0.0
 11
201.000062
 21
5.999991
 31
0.0
  0
LINE
  5
2c0
100
AcDbEntity
  8
Layer_1
 62
7
100
AcDbLine
 10
201.000062
 20
5.999991
 30
0.0
 11
191.000053
 21
5.999991
 31
0.0
  0
LINE
  5
2c1
100
AcDbEntity
  8
Layer_1
 62
7
100
AcDbLine
 10
191.000053
 20
5.999991
 30
0.0
 11
191.000053
 21
-0.000014
 31
0.0
  0
LINE
  5
2c2
100
AcDbEntity
  8
Layer_1
 62
7
100
AcDbLine
 10
191.000053
 20
-0.000014
 30
0.0
 11
181.000045
 21
-0.000014
 31
0.0
  0
LINE
  5
2c3
100
AcDbEntity
  8
Layer_1
 62
7
100
AcDbLine
 10
181.000045
 20
-0.000014
 30
0.0
 11
181.000045
 21
5.999991
 31
0.0
  0
LINE
  5
2c4
100
AcDbEntity
  8
Layer_1
 62
7
100
AcDbLine
 10
181.000045
 20
5.999991
 30
0.0
 11
171.000037
 21
5.999991
 31
0.0
  0
LINE
  5
2c5
100
AcDbEntity
  8
Layer_1
 62
7
100
AcDbLine
 10
171.000037
 20
5.999991
 30
0.0
 11
171.000037
 21
-0.000014
 31
0.0
  0
LINE
  5
2c6
100
AcDbEntity
  8
Layer_1
 62
7
100
AcDbLine
 10
171.000037
 20
-0.000014
 30
0.0
 11
161.000029
 21
-0.000014
 31
0.0
  0
LINE
  5
2c7
100
AcDbEntity
  8
Layer_1
 62
7
100
AcDbLine
 10
161.000029
 20
-0.000014
 30
0.0
 11
161.000029
 21
5.999991
 31
0.0
  0
LINE
  5
2c8
100
AcDbEntity
  8
Layer_1
 62
7
100
AcDbLine
 10
161.000029
 20
5.999991
 30
0.0
 11
151.000021
 21
5.999991
 31
0.0
  0
LINE
  5
2c9
100
AcDbEntity
  8
Layer_1
 62
7
100
AcDbLine
 10
151.000021
 20
5.999991
 30
0.0
 11
151.000021
 21
-0.000014
 31
0.0
  0
LINE
  5
2ca
100
AcDbEntity
  8
Layer_1
 62
7
100
AcDbLine
 10
151.000021
 20
-0.000014
 30
0.0
 11
144.850031
 21
-0.000014
 31
0.0
  0
LINE
  5
2cb
100
AcDbEntity
  8
Layer_1
 62
7
100
AcDbLine
 10
144.850031
 20
-0.000014
 30
0.0
 11
144.850031
 21
3.699990
 31
0.0
  0
LINE
  5
2cc
100
AcDbEntity
  8
Layer_1
 62
7
100
AcDbLine
 10
144.850031
 20
3.699990
 30
0.0
 11
141.150013
 21
3.699990
 31
0.0
  0
LINE
  5
2cd
100
AcDbEntity
  8
Layer_1
 62
7
100
AcDbLine
 10
141.150013
 20
3.699990
 30
0.0
 11
141.150013
 21
-0.000014
 31
0.0
  0
LINE
  5
2ce
100
AcDbEntity
  8
Layer_1
 62
7
100
AcDbLine
 10
141.150013
 20
-0.000014
 30
0.0
 11
135.000024
 21
-0.000014
 31
0.0
  0
LINE
  5
2cf
100
AcDbEntity
  8
Layer_1
 62
7
100
AcDbLine
 10
135.000024
 20
-0.000014
 30
0.0
 11
135.000024
 21
5.999991
 31
0.0
  0
LINE
  5
2d0
100
AcDbEntity
  8
Layer_1
 62
7
100
AcDbLine
 10
135.000024
 20
5.999991
 30
0.0
 11
119.000000
 21
5.999991
 31
0.0
  0
LINE
  5
2d1
100
AcDbEntity
  8
Layer_1
 62
7
100
AcDbLine
 10
119.000000
 20
5.999991
 30
0.0
 11
119.000000
 21
10.399990
 31
0.0
  0
LINE
  5
2d2
100
AcDbEntity
  8
Layer_1
 62
7
100
AcDbLine
 10
119.000000
 20
10.399990
 30
0.0
 11
125.000016
 21
10.399990
 31
0.0
  0
LINE
  5
2d3
100
AcDbEntity
  8
Layer_1
 62
7
100
AcDbLine
 10
125.000016
 20
10.399990
 30
0.0
 11
125.000016
 21
20.800001
 31
0.0
  0
LINE
  5
2d4
100
AcDbEntity
  8
Layer_1
 62
7
100
AcDbLine
 10
125.000016
 20
20.800001
 30
0.0
 11
119.000000
 21
20.800001
 31
0.0
  0
LINE
  5
2d5
100
AcDbEntity
  8
Layer_1
 62
7
100
AcDbLine
 10
119.000000
 20
20.800001
 30
0.0
 11
119.000000
 21
24.150004
 31
0.0
  0
LINE
  5
2d6
100
AcDbEntity
  8
Layer_1
 62
7
100
AcDbLine
 10
119.000000
 20
24.150004
 30
0.0
 11
119.000000
 21
27.850008
 31
0.0
  0
LINE
  5
2d7
100
AcDbEntity
  8
Layer_1
 62
7
100
AcDbLine
 10
119.000000
 20
27.850008
 30
0.0
 11
119.000000
 21
31.200011
 31
0.0
  0
LINE
  5
2d8
100
AcDbEntity
  8
Layer_1
 62
7
100
AcDbLine
 10
119.000000
 20
31.200011
 30
0.0
 11
125.000016
 21
31.200011
 31
0.0
  0
LINE
  5
2d9
100
AcDbEntity
  8
Layer_1
 62
7
100
AcDbLine
 10
125.000016
 20
31.200011
 30
0.0
 11
125.000016
 21
41.600018
 31
0.0
  0
LINE
  5
2da
100
AcDbEntity
  8
Layer_1
 62
7
100
AcDbLine
 10
125.000016
 20
41.600018
 30
0.0
 11
119.000000
 21
41.600018
 31
0.0
  0
LINE
  5
2db
100
AcDbEntity
  8
Layer_1
 62
7
100
AcDbLine
 10
119.000000
 20
41.600018
 30
0.0
 11
119.000000
 21
46.000024
 31
0.0
  0
LINE
  5
2dc
100
AcDbEntity
  8
Layer_1
 62
7
100
AcDbLine
 10
119.000000
 20
46.000024
 30
0.0
 11
135.000024
 21
46.000024
 31
0.0
  0
LINE
  5
2dd
100
AcDbEntity
  8
Layer_1
 62
7
100
AcDbLine
 10
135.000024
 20
46.000024
 30
0.0
 11
135.000024
 21
46.000024
 31
0.0
  0
SPLINE
  5
2de
100
AcDbEntity
  8
Layer_1
 62
7
100
AcDbSpline
 70
8
 71
3
 72
8
 73
4
 74
0
 40
0
 40
0
 40
0
 40
0
 40
1
 40
1
 40
1
 40
1
 10
143.871234
 20
13.528796
 30
0.0
 10
140.264293
 20
13.528796
 30
0.0
 10
136.805067
 20
14.961653
 30
0.0
 10
134.254568
 20
17.512149
 30
0.0
  0
SPLINE
  5
2df
100
AcDbEntity
  8
Layer_1
 62
7
100
AcDbSpline
 70
8
 71
3
 72
8
 73
4
 74
0
 40
0
 40
0
 40
0
 40
0
 40
1
 40
1
 40
1
 40
1
 10
134.254568
 20
17.512149
 30
0.0
 10
131.704070
 20
20.062644
 30
0.0
 10
130.271227
 20
23.521862
 30
0.0
 10
130.271227
 20
27.128809
 30
0.0
  0
SPLINE
  5
2e0
100
AcDbEntity
  8
Layer_1
 62
7
100
AcDbSpline
 70
8
 71
3
 72
8
 73
4
 74
0
 40
0
 40
0
 40
0
 40
0
 40
1
 40
1
 40
1
 40
1
 10
130.271227
 20
27.128809
 30
0.0
 10
130.271227
 20
34.639888
 30
0.0
 10
136.360144
 20
40.728821
 30
0.0
 10
143.871234
 20
40.728821
 30
0.0
  0
SPLINE
  5
2e1
100
AcDbEntity
  8
Layer_1
 62
7
100
AcDbSpline
 70
8
 71
3
 72
8
 73
4
 74
0
 40
0
 40
0
 40
0
 40
0
 40
1
 40
1
 40
1
 40
1
 10
143.871234
 20
40.728821
 30
0.0
 10
151.382324
 20
40.728818
 30
0.0
 10
157.471241
 20
34.639888
 30
0.0
 10
157.471241
 20
27.128809
 30
0.0
  0
SPLINE
  5
2e2
100
AcDbEntity
  8
Layer_1
 62
7
100
AcDbSpline
 70
8
 71
3
 72
8
 73
4
 74
0
 40
0
 40
0
 40
0
 40
0
 40
1
 40
1
 40
1
 40
1
 10
157.471241
 20
27.128809
 30
0.0
 10
157.471241
 20
19.617732
 30
0.0
 10
151.382324
 20
13.528799
 30
0.0
 10
143.871234
 20
13.528796
 30
0.0
  0
LINE
  5
2e3
100
AcDbEntity
  8
Layer_1
 62
7
100
AcDbLine
 10
143.871234
 20
13.528796
 30
0.0
 11
143.871234
 21
13.528796
 31
0.0
  0
SPLINE
  5
2e4
100
AcDbEntity
  8
Layer_1
 62
7
100
AcDbSpline
 70
8
 71
3
 72
8
 73
4
 74
0
 40
0
 40
0
 40
0
 40
0
 40
1
 40
1
 40
1
 40
1
 10
205.871279
 20
13.528796
 30
0.0
 10
202.264338
 20
13.528796
 30
0.0
 10
198.805112
 20
14.961653
 30
0.0
 10
196.254614
 20
17.512149
 30
0.0
  0
SPLINE
  5
2e5
100
AcDbEntity
  8
Layer_1
 62
7
100
AcDbSpline
 70
8
 71
3
 72
8
 73
4
 74
0
 40
0
 40
0
 40
0
 40
0
 40
1
 40
1
 40
1
 40
1
 10
196.254614
 20
17.512149
 30
0.0
 10
193.704115
 20
20.062644
 30
0.0
 10
192.271273
 20
23.521862
 30
0.0
 10
192.271273
 20
27.128809
 30
0.0
  0
SPLINE
  5
2e6
100
AcDbEntity
  8
Layer_1
 62
7
100
AcDbSpline
 70
8
 71
3
 72
8
 73
4
 74
0
 40
0
 40
0
 40
0
 40
0
 40
1
 40
1
 40
1
 40
1
 10
192.271273
 20
27.128809
 30
0.0
 10
192.271273
 20
34.639888
 30
0.0
 10
198.360189
 20
40.728821
 30
0.0
 10
205.871279
 20
40.728821
 30
0.0
  0
SPLINE
  5
2e7
100
AcDbEntity
  8
Layer_1
 62
7
100
AcDbSpline
 70
8
 71
3
 72
8
 73
4
 74
0
 40
0
 40
0
 40
0
 40
0
 40
1
 40
1
 40
1
 40
1
 10
205.871279
 20
40.728821
 30
0.0
 10
213.382342
 20
40.728818
 30
0.0
 10
219.471286
 20
34.639888
 30
0.0
 10
219.471286
 20
27.128809
 30
0.0
  0
SPLINE
  5
2e8
100
AcDbEntity
  8
Layer_1
 62
7
100
AcDbSpline
 70
8
 71
3
 72
8
 73
4
 74
0
 40
0
 40
0
 40
0
 40
0
 40
1
 40
1
 40
1
 40
1
 10
219.471286
 20
27.128809
 30
0.0
 10
219.471286
 20
19.617732
 30
0.0
 10
213.382342
 20
13.528799
 30
0.0
 10
205.871279
 20
13.528796
 30
0.0
  0
LINE
  5
2e9
100
AcDbEntity
  8
Layer_1
 62
7
100
AcDbLine
 10
205.871279
 20
13.528796
 30
0.0
 11
205.871279
 21
13.528796
 31
0.0
  0
ENDSEC
  0
SECTION
  2
OBJECTS
  0
DICTIONARY
  5
C
330
0
100
AcDbDictionary
  3
ACAD_GROUP
350
D
  3
ACAD_MLINESTYLE
350
17
  0
DICTIONARY
  5
D
330
C
100
AcDbDictionary
  0
DICTIONARY
  5
1A
330
C
100
AcDbDictionary
  0
DICTIONARY
  5
17
330
C
100
AcDbDictionary
  3
STANDARD
350
18
  0
DICTIONARY
  5
19
330
C
100
AcDbDictionary
  0
ENDSEC
  0
EOF
